<svg width="48" height="10" viewBox="0 0 48 10" fill="none" xmlns="http://www.w3.org/2000/svg">
    <g clip-path="url(#clip0_0_586)">
        <path
            d="M3.03297 2.639L2.64087 4.08217L4.88517 2.63078L3.41735 8.10721L4.90807 8.10846L7.07643 0.0195312"
            fill="#3395FF" />
        <path
            d="M0.617399 5.80504L0 8.10734H3.05538L4.30561 3.42382L0.617399 5.80504ZM11.2307 3.77807C11.156 4.05566 11.0121 4.25955 10.7975 4.38975C10.5834 4.5197 10.2829 4.58493 9.89507 4.58493H8.66276L9.09544 2.97172H10.3277C10.7151 2.97172 10.9812 3.03645 11.1256 3.16839C11.27 3.30034 11.3049 3.50199 11.2307 3.78081M12.5066 3.74596C12.6634 3.16341 12.5987 2.7153 12.3119 2.40162C12.0256 2.09043 11.5232 1.93359 10.8062 1.93359H8.05607L6.40054 8.11008H7.73666L8.40385 5.62056H9.28016C9.47683 5.62056 9.63168 5.65293 9.7447 5.71516C9.85798 5.77989 9.92445 5.89192 9.94486 6.05374L10.1834 8.11008H11.6148L11.3828 6.19315C11.3355 5.76495 11.1396 5.51351 10.7953 5.43883C11.2342 5.31186 11.6019 5.10025 11.8981 4.80649C12.1923 4.51488 12.4025 4.14939 12.5066 3.74845M15.7544 5.89939C15.6424 6.31763 15.4706 6.63379 15.2383 6.85536C15.0058 7.07693 14.728 7.18647 14.4038 7.18647C14.0737 7.18647 13.8499 7.07942 13.7317 6.86283C13.6132 6.64624 13.6092 6.33256 13.7192 5.92179C13.8292 5.51102 14.0048 5.18988 14.2462 4.95835C14.4877 4.72683 14.77 4.61107 15.0942 4.61107C15.4178 4.61107 15.6394 4.72309 15.7514 4.94541C15.8659 5.16872 15.8684 5.48812 15.7564 5.90387L15.7544 5.89939ZM16.3399 3.7136L16.1726 4.33846C16.1004 4.11441 15.9603 3.93516 15.7531 3.80073C15.5455 3.66878 15.2886 3.60157 14.9821 3.60157C14.6062 3.60157 14.2452 3.69866 13.8992 3.89284C13.5532 4.08702 13.2494 4.36087 12.9905 4.71438C12.7316 5.06789 12.5424 5.4687 12.4204 5.9193C12.3009 6.3724 12.276 6.76823 12.3482 7.11178C12.4229 7.45782 12.5798 7.72171 12.8212 7.90594C13.0652 8.09265 13.3764 8.18476 13.7573 8.18476C14.06 8.1863 14.3592 8.12083 14.6336 7.99307C14.9049 7.87071 15.1462 7.69059 15.3406 7.46529L15.1664 8.11655H16.4584L17.6382 3.71584H16.3437L16.3399 3.7136ZM22.2811 3.7136H18.5237L18.2611 4.69446H20.4474L17.557 7.19145L17.3101 8.11257H21.1887L21.4514 7.1317H19.1088L22.0434 4.59737M25.5885 5.89192C25.4722 6.3251 25.2997 6.65072 25.0719 6.86283C24.8441 7.07693 24.5683 7.18398 24.2444 7.18398C23.5672 7.18398 23.3447 6.75329 23.5757 5.89192C23.6902 5.46372 23.8635 5.14183 24.095 4.92499C24.3265 4.70741 24.6071 4.59887 24.937 4.59887C25.2606 4.59887 25.4792 4.70666 25.5917 4.92375C25.7042 5.14034 25.7032 5.46323 25.5885 5.89142M26.3448 3.87915C26.0473 3.69393 25.6676 3.60132 25.2046 3.60132C24.7358 3.60132 24.3019 3.69343 23.9026 3.87765C23.5049 4.06073 23.1554 4.33401 22.8819 4.67579C22.6006 5.02184 22.3982 5.42763 22.2739 5.89068C22.1519 6.35198 22.137 6.75703 22.2316 7.10382C22.3262 7.44986 22.5254 7.71624 22.8241 7.90046C23.1253 8.08618 23.5087 8.17854 23.9792 8.17854C24.4423 8.17854 24.873 8.08543 25.2688 7.90021C25.6646 7.71399 26.0032 7.44961 26.2845 7.10108C26.5658 6.75404 26.7675 6.34924 26.892 5.88619C27.0164 5.42314 27.0314 5.01885 26.9368 4.67131C26.8422 4.32527 26.6455 4.05889 26.3493 3.87342M30.9573 4.88914L31.2885 3.69169C31.1764 3.63443 31.0295 3.60456 30.8453 3.60456C30.5491 3.60456 30.2653 3.67775 29.9914 3.82612C29.7559 3.95209 29.5558 4.12984 29.3865 4.35241L29.5582 3.70762L29.1831 3.70911H28.262L27.0745 8.10809H28.3847L29.0008 5.80852C29.0905 5.47418 29.2518 5.21104 29.4846 5.02432C29.7161 4.83686 30.0049 4.74301 30.3534 4.74301C30.5675 4.74301 30.7667 4.79205 30.9559 4.88989M34.603 5.91308C34.491 6.32385 34.3217 6.63753 34.0902 6.85412C33.8586 7.0717 33.5798 7.18024 33.2562 7.18024C32.9325 7.18024 32.711 7.0707 32.594 6.85163C32.4745 6.63131 32.472 6.31389 32.584 5.89665C32.696 5.47966 32.8678 5.15975 33.1043 4.93819C33.3408 4.71488 33.6196 4.60335 33.9433 4.60335C34.2619 4.60335 34.476 4.71787 34.5905 4.94939C34.7051 5.18092 34.7076 5.50206 34.5975 5.91283M35.5137 3.88637C35.2709 3.69219 34.961 3.59509 34.5851 3.59509C34.2557 3.59509 33.9418 3.66978 33.644 3.82065C33.3465 3.97126 33.1051 4.17665 32.9196 4.43655L32.9241 4.40668L33.1439 3.70712H31.8643L31.5382 4.9245L31.5282 4.96682L30.1839 9.98169H31.4958L32.173 7.45733C32.2402 7.68188 32.3771 7.85814 32.5862 7.9856C32.7954 8.11257 33.0535 8.17555 33.3605 8.17555C33.7414 8.17555 34.1048 8.08344 34.4496 7.89922C34.7957 7.71449 35.0944 7.44861 35.3484 7.10506C35.6023 6.76151 35.7907 6.36319 35.911 5.91258C36.033 5.46123 36.0579 5.05868 35.9882 4.70641C35.9172 4.35365 35.7601 4.08055 35.5176 3.88736M39.8656 5.89516C39.7535 6.3109 39.5818 6.62956 39.3502 6.84864C39.1187 7.06921 38.8399 7.179 38.5163 7.179C38.1852 7.179 37.9611 7.07195 37.8441 6.85536C37.7246 6.63877 37.7221 6.3251 37.8316 5.91433C37.9412 5.50356 38.1159 5.18241 38.3574 4.95088C38.5989 4.71936 38.8815 4.60385 39.2056 4.60385C39.5292 4.60385 39.7483 4.71587 39.8628 4.93744C39.9774 5.15975 39.9781 5.47916 39.8666 5.8959L39.8656 5.89516ZM40.4506 3.70812L40.2831 4.33299C40.2109 4.10769 40.0715 3.92844 39.8648 3.79525C39.6557 3.66231 39.3993 3.59609 39.0931 3.59609C38.7172 3.59609 38.3542 3.69318 38.0077 3.88736C37.6616 4.08155 37.3579 4.3539 37.099 4.70641C36.8401 5.05893 36.6509 5.46074 36.5289 5.91134C36.4081 6.36368 36.3845 6.76026 36.4567 7.10531C36.5296 7.44886 36.6867 7.71424 36.9297 7.89946C37.1722 8.08369 37.4849 8.1768 37.8657 8.1768C38.172 8.1768 38.4645 8.11306 38.7421 7.9851C39.0127 7.86218 39.2534 7.68183 39.4473 7.45658L39.2731 8.10833H40.5651L41.7447 3.70936H40.4526L40.4506 3.70812ZM47.1691 3.70961L47.1698 3.70837H46.3757C46.3503 3.70837 46.3279 3.70961 46.3047 3.71011H45.8927L45.6811 4.00387L45.6288 4.07358L45.6064 4.10843L43.9322 6.44061L43.5862 3.70961H42.2149L42.9095 7.85963L41.376 9.98319H42.7427L43.1136 9.45715C43.1241 9.44172 43.1336 9.42877 43.146 9.41234L43.5792 8.79743L43.5916 8.78L45.5317 6.02909L47.1673 3.71384L47.1698 3.71235H47.1691V3.70961Z"
            fill="#072654" />
    </g>
    <defs>
        <clipPath id="clip0_0_586">
            <rect width="47.1698" height="10" fill="white" />
        </clipPath>
    </defs>
</svg>
