<svg width="20" height="20" viewBox="0 0 20 20" fill="none" xmlns="http://www.w3.org/2000/svg">
    <path
        d="M18.7946 3.09766H1.20536C0.539662 3.09766 0 3.63732 0 4.30301V15.6998C0 16.3655 0.539662 16.9052 1.20536 16.9052H18.7946C19.4603 16.9052 20 16.3655 20 15.6998V4.30301C20 3.63732 19.4603 3.09766 18.7946 3.09766Z"
        fill="#2F4859" />
    <path
        d="M13.8678 6.46046V8.42354C13.8678 8.73181 14.1177 8.98166 14.4259 8.98166H17.5053C17.8135 8.98166 18.0634 8.73177 18.0634 8.42354V6.46046C18.0634 6.15219 17.8135 5.90234 17.5053 5.90234H14.426C14.1177 5.90234 13.8678 6.15223 13.8678 6.46046Z"
        fill="#E56353" />
    <path
        d="M1.97687 5.07812H2.84449C3.01622 5.07812 3.1443 5.0853 3.22869 5.09961C3.31309 5.11391 3.38859 5.14377 3.45522 5.18917C3.52184 5.23457 3.57737 5.29504 3.62178 5.37055C3.6662 5.44606 3.68841 5.5307 3.68841 5.62445C3.68841 5.7261 3.66103 5.81937 3.60624 5.90427C3.55144 5.98918 3.47717 6.05281 3.38343 6.09527C3.51569 6.13375 3.61734 6.19939 3.68841 6.29219C3.75947 6.38496 3.79501 6.49403 3.79501 6.61938C3.79501 6.71808 3.77207 6.81409 3.72616 6.90736C3.68025 7.00064 3.6176 7.07517 3.53812 7.13094C3.45868 7.18672 3.36071 7.22101 3.24424 7.23383C3.17121 7.24173 2.99499 7.24664 2.71568 7.24865H1.97687V5.07812ZM2.4151 5.43935V5.94126H2.70231C2.87306 5.94126 2.97919 5.93878 3.02062 5.93387C3.09562 5.92499 3.1546 5.89906 3.19756 5.85614C3.24052 5.81322 3.26196 5.75672 3.26196 5.68663C3.26196 5.6195 3.24347 5.565 3.20644 5.52302C3.16942 5.48104 3.11441 5.45567 3.04138 5.44678C2.99794 5.44183 2.87311 5.43939 2.66678 5.43939L2.4151 5.43935ZM2.4151 6.30253V6.88294H2.82079C2.97872 6.88294 3.07892 6.87849 3.12133 6.86961C3.18646 6.85778 3.23954 6.82891 3.2805 6.783C3.32146 6.73709 3.34196 6.67567 3.34196 6.59867C3.34196 6.53354 3.32615 6.47823 3.29459 6.43283C3.26303 6.38743 3.21738 6.35438 3.15763 6.33362C3.09788 6.31286 2.96834 6.30253 2.76898 6.30253H2.4151ZM6.12248 7.24865H5.64573L5.45623 6.75562H4.58861L4.40945 7.24865H3.94453L4.78994 5.07812H5.25337L6.12248 7.24865ZM5.31555 6.38991L5.01646 5.58447L4.72331 6.38991H5.31555ZM6.35934 7.24865V5.07812H6.78574L7.67407 6.5276V5.07812H8.08121V7.24865H7.64149L6.76648 5.83321V7.24865H6.35934ZM8.55062 7.24865V5.07812H8.98885V6.04197L9.87423 5.07812H10.4635L9.64626 5.92354L10.5079 7.24865H9.94086L9.34418 6.23001L8.98885 6.59273V7.24865H8.55062ZM1.09119 13.8648H2.78957V14.9238H1.09119V13.8648ZM4.17067 13.8648H6.84801V14.9238H4.17067V13.8648ZM7.65866 13.8648H10.6824V14.9238H7.65866V13.8648ZM11.6826 13.8648H15.2064V14.9238H11.6826V13.8648ZM16.361 13.8648H18.9088V14.9238H16.361V13.8648Z"
        fill="#EBF0F3" />
</svg>
