<svg width="20" height="20" viewBox="0 0 20 20" fill="none" xmlns="http://www.w3.org/2000/svg">
    <path
        d="M15.3498 9.9417L15.3338 9.95236C5.48157 16.3745 6.03731 16.0772 5.81437 16.1249C5.68772 16.1533 5.55541 16.1421 5.43527 16.093C5.31513 16.0439 5.21291 15.9592 5.14237 15.8502L1.57197 10.3894C1.37731 10.0934 1.45997 9.6961 1.75864 9.5041L11.0808 3.41129C11.3768 3.21396 11.7741 3.29929 11.9688 3.59529L15.5365 9.05636C15.5828 9.12663 15.6147 9.20536 15.6303 9.28802C15.646 9.37068 15.6451 9.45563 15.6278 9.53795C15.6104 9.62027 15.5769 9.69833 15.5292 9.76763C15.4815 9.83693 15.4205 9.89609 15.3498 9.9417Z"
        fill="#FDE77A" />
    <path
        d="M15.4698 9.84116C15.4053 9.91076 15.3605 9.93369 15.3338 9.95316C5.48156 16.3758 6.03729 16.0785 5.81436 16.1265C5.73436 16.1452 5.65436 16.1452 5.57703 16.1345L5.60903 10.7825C5.61169 10.2332 6.06236 9.78516 6.60903 9.78516L15.4698 9.84116Z"
        fill="#F8C73B" />
    <path
        d="M13.3178 5.66168C-3.84034 16.8803 13.1861 5.74781 2.92392 12.4558L1.93726 10.9465L12.3314 4.15234L13.3178 5.66168Z"
        fill="#898796" />
    <path
        d="M7.00638 9.78782L5.61438 10.6998C5.6359 10.4506 5.74994 10.2186 5.93404 10.0493C6.11814 9.87999 6.35895 9.78576 6.60905 9.78516L7.00638 9.78782Z"
        fill="#727083" />
    <path
        d="M9.61672 9.90451L5.59832 12.5312L4.82232 13.0378C4.76366 13.0752 4.68632 13.0592 4.64899 13.0032C4.63101 12.9748 4.62486 12.9405 4.63183 12.9076C4.63881 12.8747 4.65836 12.8458 4.68632 12.8272L5.60099 12.2298L9.47832 9.69385C9.62126 9.60291 9.75112 9.81811 9.61672 9.90451Z"
        fill="#F6F3FE" />
    <path
        d="M13.8171 8.72668L12.6006 9.52188C12.5868 9.53089 12.5713 9.5371 12.5551 9.54016C12.5389 9.54321 12.5223 9.54304 12.5061 9.53966C12.49 9.53628 12.4747 9.52975 12.4611 9.52046C12.4475 9.51116 12.4358 9.49927 12.4268 9.48548C12.4178 9.47168 12.4116 9.45624 12.4085 9.44004C12.4055 9.42384 12.4057 9.4072 12.409 9.39107C12.4124 9.37494 12.4189 9.35963 12.4282 9.34602C12.4375 9.33241 12.4494 9.32076 12.4632 9.31174L13.6798 8.51654C13.6936 8.50752 13.709 8.50131 13.7252 8.49826C13.7414 8.49521 13.758 8.49538 13.7742 8.49876C13.7903 8.50214 13.8056 8.50867 13.8192 8.51796C13.8328 8.52726 13.8445 8.53914 13.8535 8.55294C13.8625 8.56674 13.8687 8.58218 13.8718 8.59838C13.8748 8.61458 13.8746 8.63121 13.8713 8.64735C13.8679 8.66348 13.8614 8.67879 13.8521 8.6924C13.8428 8.70601 13.8309 8.71766 13.8171 8.72668ZM14.3072 9.47494L13.0912 10.2723C13.0326 10.3096 12.9552 10.2936 12.9152 10.2349C12.9062 10.2211 12.9001 10.2057 12.8971 10.1895C12.8941 10.1733 12.8944 10.1566 12.8979 10.1405C12.9013 10.1244 12.9079 10.1091 12.9173 10.0956C12.9267 10.0821 12.9387 10.0705 12.9526 10.0616L13.3072 9.82961L14.1686 9.26694C14.2272 9.22694 14.3046 9.24561 14.3419 9.30161C14.3819 9.36028 14.3659 9.43761 14.3072 9.47494Z"
        fill="#F56357" />
    <path
        d="M13.7632 9.83079L13.0912 10.2708C13.0325 10.3081 12.9552 10.2921 12.9152 10.2335C12.9062 10.2196 12.9001 10.2042 12.8971 10.188C12.8941 10.1718 12.8944 10.1551 12.8978 10.139C12.9013 10.1229 12.9079 10.1077 12.9173 10.0941C12.9267 10.0806 12.9386 10.069 12.9525 10.0601L13.3072 9.82812L13.7632 9.83079Z"
        fill="#E11A17" />
    <path
        d="M8.70216 12.066C8.06376 12.4833 10.3432 10.994 5.53976 14.1327C5.4811 14.1727 5.40376 14.1567 5.36643 14.098C5.34848 14.0703 5.34205 14.0367 5.34853 14.0043C5.355 13.9719 5.37387 13.9434 5.4011 13.9247L5.59043 13.802V13.7993L8.56376 11.858C8.62243 11.818 8.69976 11.834 8.7371 11.8927C8.7771 11.9513 8.76083 12.0287 8.70216 12.066Z"
        fill="#F6F3FE" />
    <path
        d="M8.73675 11.8941C8.77675 11.9528 8.76075 12.0301 8.70209 12.0674L5.59009 14.1021V13.8008L8.56342 11.8594C8.62209 11.8194 8.69942 11.8354 8.73675 11.8941ZM9.67275 9.80371C9.67275 9.84638 9.65409 9.88105 9.61675 9.90505L5.59835 12.5314L5.60102 12.2301L9.31302 9.80078L9.67275 9.80371Z"
        fill="#DCD9EA" />
    <path
        d="M17.8069 18.0429L6.75063 17.9741C6.56976 17.973 6.39675 17.9001 6.26963 17.7714C6.14251 17.6427 6.0717 17.4688 6.07277 17.288L6.11277 10.8458C6.11389 10.665 6.18681 10.492 6.31548 10.3648C6.44414 10.2377 6.61803 10.1669 6.7989 10.168L17.8554 10.2368C18.0363 10.2379 18.2093 10.3108 18.3364 10.4395C18.4636 10.5682 18.5344 10.742 18.5333 10.9229L18.4933 17.365C18.4927 17.4546 18.4745 17.5432 18.4397 17.6258C18.4049 17.7083 18.3542 17.7832 18.2905 17.8461C18.2268 17.9091 18.1512 17.9589 18.0683 17.9926C17.9853 18.0264 17.8965 18.0435 17.8069 18.0429Z"
        fill="#6F6ECF" />
    <path
        d="M17.4523 12.1574L14.5651 12.1393C14.5294 12.1391 14.494 12.1318 14.4611 12.118C14.4282 12.1041 14.3983 12.0839 14.3732 12.0585C14.3481 12.0331 14.3282 12.003 14.3148 11.9699C14.3013 11.9368 14.2945 11.9014 14.2947 11.8657L14.2979 11.3446C14.2981 11.3089 14.3053 11.2735 14.3192 11.2406C14.3331 11.2077 14.3533 11.1778 14.3788 11.1527C14.4042 11.1276 14.4343 11.1077 14.4675 11.0942C14.5006 11.0808 14.536 11.074 14.5717 11.0742L17.4589 11.0921C17.4947 11.0923 17.53 11.0996 17.563 11.1134C17.5959 11.1273 17.6258 11.1475 17.6509 11.173C17.676 11.1984 17.6959 11.2286 17.7093 11.2617C17.7228 11.2948 17.7296 11.3302 17.7293 11.366L17.7261 11.887C17.7259 11.9228 17.7187 11.9581 17.7048 11.9911C17.6909 12.024 17.6707 12.0539 17.6453 12.079C17.6198 12.1041 17.5897 12.124 17.5566 12.1374C17.5235 12.1509 17.488 12.1577 17.4523 12.1574Z"
        fill="#F7D78A" />
    <path
        d="M17.7256 11.3222C17.6989 11.3169 17.7197 11.3196 14.7978 11.3009C14.6458 11.3009 14.5232 11.4209 14.5232 11.5702C14.5205 12.1238 14.5184 12.1089 14.5232 12.1382C14.3925 12.1169 14.2938 12.0049 14.2938 11.8662L14.2965 11.3462C14.2992 11.1942 14.4218 11.0742 14.5712 11.0742L17.4592 11.0929C17.5925 11.0929 17.7042 11.1916 17.7256 11.3222Z"
        fill="#EAC471" />
    <path
        d="M13.848 14.2982L7.47281 14.2585C7.45635 14.2584 7.44008 14.255 7.42491 14.2486C7.40975 14.2422 7.39599 14.2329 7.38442 14.2212C7.37286 14.2095 7.36372 14.1956 7.35751 14.1804C7.35131 14.1651 7.34817 14.1488 7.34828 14.1323C7.34838 14.1159 7.35173 14.0996 7.35813 14.0844C7.36452 14.0693 7.37384 14.0555 7.38556 14.044C7.39727 14.0324 7.41114 14.0233 7.42639 14.017C7.44164 14.0108 7.45795 14.0077 7.47441 14.0078L13.8493 14.0473C13.8658 14.0474 13.8821 14.0507 13.8972 14.0571C13.9124 14.0635 13.9262 14.0728 13.9377 14.0846C13.9493 14.0963 13.9584 14.1101 13.9646 14.1254C13.9708 14.1406 13.974 14.157 13.9739 14.1734C13.9738 14.1899 13.9704 14.2062 13.964 14.2213C13.9576 14.2365 13.9483 14.2502 13.9366 14.2618C13.9249 14.2734 13.911 14.2825 13.8958 14.2887C13.8805 14.2949 13.8642 14.2981 13.8477 14.2979L13.848 14.2982ZM11.5459 15.5275L7.46508 15.5022C7.4486 15.5021 7.43231 15.4988 7.41713 15.4924C7.40194 15.486 7.38817 15.4766 7.3766 15.4649C7.35322 15.4412 7.3402 15.4092 7.34041 15.3759C7.34063 15.3427 7.35405 15.3108 7.37773 15.2875C7.40141 15.2641 7.4334 15.2511 7.46668 15.2513L11.5475 15.2766C11.564 15.2767 11.5803 15.2801 11.5954 15.2865C11.6106 15.2929 11.6244 15.3022 11.636 15.3139C11.6475 15.3257 11.6567 15.3395 11.6629 15.3548C11.6691 15.3701 11.6723 15.3864 11.6721 15.4029C11.672 15.4194 11.6687 15.4357 11.6623 15.4508C11.6559 15.466 11.6466 15.4798 11.6348 15.4914C11.6231 15.5029 11.6092 15.5121 11.594 15.5183C11.5787 15.5245 11.5624 15.5277 11.5459 15.5275ZM7.70668 17.0379L7.45548 17.0363C7.4222 17.0361 7.39038 17.0227 7.367 16.999C7.34362 16.9754 7.3306 16.9434 7.33081 16.9101C7.33103 16.8768 7.34445 16.845 7.36813 16.8216C7.39181 16.7982 7.4238 16.7852 7.45708 16.7854L7.70801 16.787C7.72447 16.7871 7.74075 16.7905 7.75592 16.7969C7.77108 16.8033 7.78484 16.8126 7.7964 16.8243C7.80797 16.836 7.81711 16.8499 7.82331 16.8651C7.82951 16.8804 7.83265 16.8967 7.83255 16.9131C7.83244 16.9296 7.8291 16.9459 7.8227 16.9611C7.8163 16.9762 7.80698 16.99 7.79527 17.0015C7.78356 17.0131 7.76968 17.0222 7.75444 17.0284C7.73919 17.0347 7.72287 17.0378 7.70641 17.0377L7.70668 17.0379ZM12.7088 17.0689L12.2083 17.0659C12.1918 17.0658 12.1755 17.0625 12.1603 17.0561C12.1451 17.0497 12.1313 17.0403 12.1197 17.0286C12.1081 17.0169 12.0989 17.003 12.0927 16.9877C12.0865 16.9724 12.0834 16.956 12.0835 16.9395C12.0836 16.9231 12.0869 16.9067 12.0933 16.8915C12.0998 16.8763 12.1091 16.8626 12.1208 16.851C12.1326 16.8394 12.1465 16.8302 12.1618 16.824C12.177 16.8178 12.1934 16.8146 12.2099 16.8147L12.7101 16.8179C12.7266 16.818 12.7429 16.8214 12.7581 16.8278C12.7733 16.8341 12.7871 16.8435 12.7987 16.8552C12.8103 16.8669 12.8194 16.8808 12.8257 16.896C12.8319 16.9113 12.835 16.9276 12.8349 16.9441C12.8349 16.9606 12.8315 16.9769 12.8251 16.992C12.8188 17.0072 12.8094 17.021 12.7977 17.0326C12.786 17.0442 12.7721 17.0534 12.7569 17.0596C12.7416 17.0658 12.7253 17.069 12.7088 17.0689ZM11.708 17.0627L11.208 17.0595C11.1916 17.0594 11.1753 17.0561 11.1601 17.0497C11.1449 17.0433 11.1312 17.034 11.1196 17.0223C11.1081 17.0106 11.0989 16.9967 11.0927 16.9814C11.0865 16.9662 11.0834 16.9499 11.0835 16.9334C11.0836 16.917 11.0869 16.9007 11.0933 16.8855C11.0997 16.8703 11.109 16.8566 11.1208 16.845C11.1325 16.8335 11.1463 16.8243 11.1616 16.8181C11.1768 16.8119 11.1932 16.8088 11.2096 16.8089L11.7096 16.8115C11.7261 16.8117 11.7424 16.815 11.7576 16.8214C11.7728 16.8278 11.7866 16.8372 11.7982 16.8489C11.8098 16.8606 11.8189 16.8745 11.8252 16.8898C11.8314 16.9051 11.8345 16.9215 11.8344 16.9379C11.8343 16.9544 11.831 16.9708 11.8245 16.986C11.8181 17.0012 11.8088 17.0149 11.7971 17.0265C11.7853 17.0381 11.7714 17.0473 11.7561 17.0535C11.7409 17.0597 11.7245 17.0629 11.708 17.0627ZM10.708 17.0566L10.2075 17.0534C10.191 17.0533 10.1747 17.05 10.1595 17.0436C10.1443 17.0372 10.1306 17.0278 10.119 17.0161C10.1074 17.0044 10.0983 16.9905 10.0921 16.9752C10.0858 16.96 10.0827 16.9436 10.0828 16.9271C10.0829 16.9107 10.0863 16.8944 10.0927 16.8792C10.0991 16.864 10.1084 16.8502 10.1201 16.8387C10.1319 16.8271 10.1457 16.8179 10.161 16.8117C10.1763 16.8055 10.1926 16.8024 10.2091 16.8025L10.7093 16.8057C10.7258 16.8058 10.7421 16.8091 10.7572 16.8155C10.7724 16.8219 10.7862 16.8312 10.7977 16.843C10.8093 16.8547 10.8184 16.8685 10.8246 16.8838C10.8308 16.899 10.834 16.9154 10.8339 16.9318C10.8338 16.9483 10.8304 16.9646 10.824 16.9797C10.8176 16.9949 10.8083 17.0086 10.7966 17.0202C10.7849 17.0318 10.771 17.0409 10.7558 17.0471C10.7405 17.0533 10.7242 17.0565 10.7077 17.0563L10.708 17.0566ZM9.70748 17.0502L9.20695 17.0473C9.19047 17.0472 9.17418 17.0438 9.15899 17.0374C9.14381 17.031 9.13004 17.0217 9.11846 17.01C9.10689 16.9982 9.09773 16.9844 9.09152 16.9691C9.08532 16.9538 9.08217 16.9375 9.08228 16.921C9.08238 16.9045 9.08573 16.8882 9.09214 16.8731C9.09854 16.8579 9.10787 16.8441 9.11959 16.8325C9.13132 16.821 9.14521 16.8118 9.16047 16.8056C9.17573 16.7994 9.19207 16.7962 9.20855 16.7963L9.70908 16.7993C9.72556 16.7994 9.74185 16.8027 9.75703 16.8091C9.77222 16.8155 9.78599 16.8249 9.79756 16.8366C9.80914 16.8483 9.81829 16.8622 9.8245 16.8775C9.83071 16.8927 9.83385 16.9091 9.83375 16.9255C9.83364 16.942 9.83029 16.9583 9.82389 16.9735C9.81749 16.9887 9.80816 17.0025 9.79643 17.014C9.78471 17.0256 9.77082 17.0348 9.75556 17.041C9.74029 17.0472 9.72396 17.0503 9.70748 17.0502ZM8.70695 17.0441L8.20668 17.0409C8.17344 17.0407 8.14164 17.0273 8.11829 17.0036C8.09494 16.98 8.08193 16.948 8.08215 16.9147C8.08236 16.8815 8.09577 16.8497 8.11942 16.8264C8.14308 16.803 8.17504 16.79 8.20828 16.7902L8.70828 16.7931C8.72476 16.7932 8.74105 16.7966 8.75624 16.803C8.77143 16.8093 8.78521 16.8187 8.7968 16.8304C8.80839 16.8421 8.81756 16.856 8.82378 16.8712C8.83001 16.8865 8.83317 16.9028 8.83308 16.9193C8.83299 16.9358 8.82966 16.9521 8.82327 16.9672C8.81689 16.9824 8.80757 16.9962 8.79586 17.0078C8.78415 17.0194 8.77027 17.0286 8.75501 17.0348C8.73976 17.041 8.72342 17.0442 8.70695 17.0441ZM13.4597 17.0737L13.2091 17.0721C13.1758 17.0719 13.144 17.0585 13.1206 17.0349C13.0972 17.0112 13.0841 16.9792 13.0843 16.9459C13.0845 16.9127 13.0978 16.8808 13.1215 16.8574C13.1452 16.834 13.1771 16.821 13.2104 16.8211L13.4613 16.8227C13.4778 16.8229 13.4941 16.8262 13.5092 16.8326C13.5244 16.839 13.5382 16.8483 13.5497 16.86C13.5613 16.8717 13.5704 16.8856 13.5766 16.9009C13.5828 16.9161 13.586 16.9324 13.5859 16.9489C13.5858 16.9653 13.5824 16.9816 13.576 16.9968C13.5696 17.012 13.5603 17.0257 13.5486 17.0373C13.5369 17.0488 13.523 17.058 13.5078 17.0642C13.4925 17.0704 13.4762 17.0738 13.4597 17.0737Z"
        fill="#F6F3FE" />
    <path
        d="M9.64611 11.4965L9.64078 12.2672L9.63811 12.7845C9.63811 13.0352 9.43358 13.2352 9.18478 13.2352L7.97678 13.2272C7.80051 13.2232 7.76745 13.228 7.71011 13.2165C7.60707 13.1965 7.51431 13.141 7.44803 13.0596C7.38175 12.9782 7.34615 12.8761 7.34745 12.7712L7.35545 11.4832C7.35545 11.2501 7.54158 11.0352 7.80878 11.0352L9.01678 11.0432C9.17438 11.045 9.21945 11.0384 9.28345 11.0512C9.49145 11.0912 9.64878 11.2778 9.64611 11.4965Z"
        fill="#F8C73B" />
    <path d="M9.64343 12L9.64076 12.2667H7.3501L7.35276 12H9.64343Z" fill="#EF9F27" />
    <path
        d="M9.28342 11.0473V13.2206C9.21968 13.2366 9.17275 13.2294 9.01675 13.2313V11.0393C9.17435 11.0411 9.21942 11.0345 9.28342 11.0473ZM7.97675 11.0313V13.2233C7.80048 13.2193 7.76742 13.2241 7.71008 13.2126V11.0393C7.78528 11.0267 7.82528 11.0331 7.97675 11.0313Z"
        fill="#EF9F27" />
    <path opacity="0.31"
        d="M13.248 6.70839C13.5235 6.88279 13.652 7.26385 13.524 7.56359C13.452 7.73292 13.3115 7.86572 13.1544 7.96199C12.7171 8.23052 12.1525 8.03772 12.0536 7.50465C11.936 6.86999 12.7067 6.36599 13.248 6.70839ZM11.7752 7.62305C11.9875 7.75719 12.0605 8.10652 11.7237 8.31319C11.4829 8.46092 11.1717 8.35479 11.1176 8.06145C11.0528 7.71212 11.4773 7.43452 11.7752 7.62305Z"
        fill="white" />
    <path
        d="M10.6059 2.95747L10.0547 2.19694C10.0439 2.18278 10.0361 2.16663 10.0317 2.14942C10.0273 2.13222 10.0264 2.1143 10.029 2.09673C10.0317 2.07917 10.0378 2.0623 10.047 2.04712C10.0562 2.03194 10.0684 2.01876 10.0828 2.00835C10.0972 1.99794 10.1135 1.99051 10.1308 1.9865C10.1481 1.98248 10.166 1.98196 10.1835 1.98498C10.201 1.98799 10.2178 1.99446 10.2327 2.00403C10.2477 2.01359 10.2606 2.02605 10.2707 2.04067L10.8219 2.8012C10.8326 2.81536 10.8404 2.83151 10.8448 2.84872C10.8492 2.86593 10.8501 2.88384 10.8475 2.90141C10.8449 2.91898 10.8388 2.93584 10.8296 2.95102C10.8203 2.9662 10.8082 2.97938 10.7938 2.98979C10.7794 3.0002 10.7631 3.00763 10.7458 3.01165C10.7285 3.01566 10.7105 3.01618 10.693 3.01317C10.6755 3.01016 10.6588 3.00368 10.6438 2.99411C10.6289 2.98455 10.616 2.97209 10.6059 2.95747ZM11.3955 2.8428H11.3928C11.3753 2.84246 11.358 2.83866 11.342 2.83164C11.3259 2.82462 11.3114 2.8145 11.2993 2.80187C11.2872 2.78924 11.2776 2.77435 11.2713 2.75804C11.2649 2.74172 11.2618 2.72431 11.2621 2.7068L11.2739 2.0916C11.2746 2.05671 11.2889 2.02347 11.3139 1.99904C11.3388 1.97461 11.3723 1.96093 11.4072 1.96094H11.4099C11.4274 1.96128 11.4447 1.96508 11.4607 1.9721C11.4767 1.97912 11.4912 1.98924 11.5034 2.00187C11.5155 2.0145 11.525 2.02939 11.5314 2.04571C11.5378 2.06202 11.5409 2.07943 11.5405 2.09694L11.5288 2.71187C11.5281 2.74677 11.5138 2.78 11.4888 2.80443C11.4639 2.82886 11.4304 2.84254 11.3955 2.84254V2.8428ZM11.9976 3.04387C11.9724 3.04384 11.9477 3.03664 11.9264 3.02312C11.905 3.0096 11.888 2.99031 11.8772 2.9675C11.8665 2.94468 11.8624 2.91927 11.8655 2.89422C11.8685 2.86918 11.8787 2.84552 11.8947 2.826C12.0189 2.674 12.1299 2.50974 12.2237 2.338C12.2321 2.32258 12.2434 2.30896 12.257 2.29793C12.2706 2.28689 12.2862 2.27865 12.303 2.2737C12.3198 2.26874 12.3375 2.26716 12.3549 2.26904C12.3723 2.27092 12.3892 2.27624 12.4045 2.28467C12.42 2.29301 12.4336 2.30433 12.4446 2.31797C12.4557 2.33161 12.4639 2.34731 12.4688 2.36414C12.4738 2.38098 12.4753 2.39862 12.4734 2.41606C12.4715 2.4335 12.4661 2.45038 12.4576 2.46574C12.3557 2.65214 12.2357 2.83027 12.1008 2.9948C12.0884 3.01016 12.0726 3.02254 12.0548 3.03103C12.0369 3.03952 12.0174 3.04391 11.9976 3.04387Z"
        fill="#6DD356" />
    <path
        d="M16.3637 17.2752C16.8658 17.2752 17.2728 16.8682 17.2728 16.3661C17.2728 15.864 16.8658 15.457 16.3637 15.457C15.8616 15.457 15.4546 15.864 15.4546 16.3661C15.4546 16.8682 15.8616 17.2752 16.3637 17.2752Z"
        fill="#F56357" />
</svg>
