<svg width="24" height="24" viewBox="0 0 24 24" fill="none" xmlns="http://www.w3.org/2000/svg">
    <path
        d="M22.4989 7.49805C22.5626 4.27643 19.7164 1.4373 16.4993 1.50105C11.193 1.4898 8.49337 8.00805 12.258 11.7397C15.993 15.5084 22.5101 12.8047 22.4989 7.49805ZM14.3917 7.01805C13.8997 7.01093 13.8975 6.27518 14.3917 6.26805H16.7618C16.6043 5.78805 16.1543 5.43518 15.6217 5.43518H14.3917C14.1817 5.43518 14.0167 5.26643 14.0167 5.06018C14.0167 4.85393 14.1817 4.68518 14.3917 4.68518H18.6068C19.0991 4.69305 19.101 5.42693 18.6068 5.43518H17.148C17.3393 5.67518 17.478 5.95643 17.538 6.26768H18.6068C19.0987 6.27518 19.101 7.01018 18.6068 7.01768H17.538C17.3573 8.01068 16.4092 8.69018 15.3892 8.60018L17.448 10.4043C17.8181 10.7227 17.3254 11.2931 16.9567 10.9668L14.1442 8.5068C13.8799 8.29605 14.0569 7.8393 14.3917 7.85055H15.6217C16.1543 7.85055 16.6043 7.49805 16.7618 7.01805H14.3917ZM4.96875 12.3734H1.875C1.66875 12.3734 1.5 12.5422 1.5 12.7484V20.5942C1.5 20.8004 1.66875 20.9692 1.875 20.9692H4.96875C5.17875 20.9692 5.34375 20.8004 5.34375 20.5942V12.7484C5.34375 12.5422 5.17875 12.3734 4.96875 12.3734ZM3.42375 15.1634C2.92875 15.1559 2.9325 14.4209 3.42375 14.4134C3.915 14.4247 3.915 15.1559 3.42375 15.1634ZM20.6115 15.7758L17.4244 16.7021C17.3141 17.8046 16.3121 18.7031 15.2044 18.6858H11.5114C11.0201 18.6764 11.0179 17.9456 11.5114 17.9358H15.2048C17.2658 17.8083 17.127 14.9696 15.0322 14.9621H12.306C12.0814 14.9621 11.8601 14.8983 11.6726 14.7783C10.7561 14.2038 9.6075 13.3076 8.45925 13.3833H6.09375V19.9683C6.19875 19.9796 6.3 20.0133 6.39375 20.0696L9.28875 21.7571C10.1351 22.2524 11.0835 22.4999 12.0322 22.4999C12.8272 22.4999 13.6222 22.3274 14.3647 21.9749L21.6532 18.5249C23.2695 17.7277 22.347 15.3026 20.6108 15.7758H20.6115Z"
        fill="white" />
</svg>
