<svg width="60" height="60" viewBox="0 0 60 60" fill="none" xmlns="http://www.w3.org/2000/svg">
    <path
        d="M25.8 43.8L46.95 22.65L42.75 18.45L25.8 35.4L17.25 26.85L13.05 31.05L25.8 43.8ZM30 60C25.85 60 21.95 59.2125 18.3 57.6375C14.65 56.0625 11.475 53.925 8.775 51.225C6.075 48.525 3.9375 45.35 2.3625 41.7C0.7875 38.05 0 34.15 0 30C0 25.85 0.7875 21.95 2.3625 18.3C3.9375 14.65 6.075 11.475 8.775 8.775C11.475 6.075 14.65 3.9375 18.3 2.3625C21.95 0.7875 25.85 0 30 0C34.15 0 38.05 0.7875 41.7 2.3625C45.35 3.9375 48.525 6.075 51.225 8.775C53.925 11.475 56.0625 14.65 57.6375 18.3C59.2125 21.95 60 25.85 60 30C60 34.15 59.2125 38.05 57.6375 41.7C56.0625 45.35 53.925 48.525 51.225 51.225C48.525 53.925 45.35 56.0625 41.7 57.6375C38.05 59.2125 34.15 60 30 60Z"
        fill="#6750A4" />
</svg>
