<svg width="24" height="24" viewBox="0 0 24 24" fill="none" xmlns="http://www.w3.org/2000/svg">
    <g clip-path="url(#clip0_0_173)">
        <path
            d="M12 22C17.5228 22 22 17.5228 22 12C22 6.47715 17.5228 2 12 2C6.47715 2 2 6.47715 2 12C2 17.5228 6.47715 22 12 22Z"
            fill="#F0F0F0" />
        <path
            d="M12.0003 2.00098C7.86614 2.00098 4.31817 4.50981 2.79517 8.08793H21.2055C19.6825 4.50981 16.1345 2.00098 12.0003 2.00098Z"
            fill="#A2001D" />
        <path
            d="M12.0003 22.0005C16.1345 22.0005 19.6825 19.4917 21.2055 15.9136H2.79517C4.31817 19.4917 7.86614 22.0005 12.0003 22.0005Z"
            fill="#496E2D" />
        <path
            d="M21.6553 9.39111H2.34431C2.12013 10.2229 1.99982 11.0972 1.99982 11.9998C1.99982 12.9024 2.12013 13.7768 2.34431 14.6085H21.6554C21.8795 13.7768 21.9998 12.9024 21.9998 11.9998C21.9998 11.0972 21.8795 10.2229 21.6553 9.39111Z"
            fill="#0052B4" />
    </g>
    <defs>
        <clipPath id="clip0_0_173">
            <rect width="20" height="20" fill="white" transform="translate(2 2)" />
        </clipPath>
    </defs>
</svg>
