<svg width="20" height="20" viewBox="0 0 20 20" fill="none" xmlns="http://www.w3.org/2000/svg">
    <path
        d="M9.16669 14.168H10.8334V10.8346H14.1667V9.16797H10.8334V5.83464H9.16669V9.16797H5.83335V10.8346H9.16669V14.168ZM10 18.3346C8.84724 18.3346 7.76391 18.1159 6.75002 17.6784C5.73613 17.2409 4.85419 16.6471 4.10419 15.8971C3.35419 15.1471 2.76044 14.2652 2.32294 13.2513C1.88544 12.2374 1.66669 11.1541 1.66669 10.0013C1.66669 8.84853 1.88544 7.76519 2.32294 6.7513C2.76044 5.73741 3.35419 4.85547 4.10419 4.10547C4.85419 3.35547 5.73613 2.76172 6.75002 2.32422C7.76391 1.88672 8.84724 1.66797 10 1.66797C11.1528 1.66797 12.2361 1.88672 13.25 2.32422C14.2639 2.76172 15.1459 3.35547 15.8959 4.10547C16.6459 4.85547 17.2396 5.73741 17.6771 6.7513C18.1146 7.76519 18.3334 8.84853 18.3334 10.0013C18.3334 11.1541 18.1146 12.2374 17.6771 13.2513C17.2396 14.2652 16.6459 15.1471 15.8959 15.8971C15.1459 16.6471 14.2639 17.2409 13.25 17.6784C12.2361 18.1159 11.1528 18.3346 10 18.3346ZM10 16.668C11.8611 16.668 13.4375 16.0221 14.7292 14.7305C16.0209 13.4388 16.6667 11.8624 16.6667 10.0013C16.6667 8.14019 16.0209 6.5638 14.7292 5.27214C13.4375 3.98047 11.8611 3.33464 10 3.33464C8.13891 3.33464 6.56252 3.98047 5.27085 5.27214C3.97919 6.5638 3.33335 8.14019 3.33335 10.0013C3.33335 11.8624 3.97919 13.4388 5.27085 14.7305C6.56252 16.0221 8.13891 16.668 10 16.668Z"
        fill="#6750A4" />
</svg>
