<svg width="25" height="25" viewBox="0 0 25 25" fill="none" xmlns="http://www.w3.org/2000/svg">
    <path
        d="M20.7812 21.8753C18.611 21.8753 16.4669 21.4022 14.3489 20.456C12.2308 19.5099 10.3038 18.1687 8.56764 16.4326C6.83153 14.6965 5.49039 12.7694 4.54421 10.6514C3.59803 8.5333 3.12494 6.3892 3.12494 4.21907C3.12494 3.90657 3.2291 3.64615 3.43744 3.43782C3.64577 3.22948 3.90619 3.12532 4.21869 3.12532H8.43744C8.68049 3.12532 8.89751 3.20778 9.08848 3.37271C9.27945 3.53764 9.3923 3.73295 9.42702 3.95865L10.1041 7.60448C10.1388 7.88226 10.1301 8.11663 10.0781 8.30761C10.026 8.49858 9.93049 8.66351 9.7916 8.8024L7.26556 11.3545C7.61278 11.9968 8.02511 12.6175 8.50254 13.2165C8.97997 13.8154 9.50514 14.3927 10.0781 14.9482C10.6163 15.4864 11.1805 15.9856 11.7708 16.4456C12.361 16.9057 12.986 17.3267 13.6458 17.7086L16.0937 15.2607C16.2499 15.1045 16.4539 14.9873 16.7057 14.9092C16.9574 14.831 17.2048 14.8093 17.4479 14.8441L21.0416 15.5732C21.2847 15.6427 21.4843 15.7685 21.6406 15.9508C21.7968 16.1331 21.8749 16.3371 21.8749 16.5628V20.7816C21.8749 21.0941 21.7708 21.3545 21.5624 21.5628C21.3541 21.7711 21.0937 21.8753 20.7812 21.8753Z"
        fill="white" />
</svg>
