<svg width="16" height="16" viewBox="0 0 16 16" fill="none" xmlns="http://www.w3.org/2000/svg">
    <path
        d="M4.66667 11.9997C4.47778 11.9997 4.31944 11.9358 4.19167 11.808C4.06389 11.6802 4 11.5219 4 11.333V9.99967H12.6667V3.99967H14C14.1889 3.99967 14.3472 4.06356 14.475 4.19134C14.6028 4.31912 14.6667 4.47745 14.6667 4.66634V14.6663L12 11.9997H4.66667ZM1.33333 11.333V1.99967C1.33333 1.81079 1.39722 1.65245 1.525 1.52467C1.65278 1.3969 1.81111 1.33301 2 1.33301H10.6667C10.8556 1.33301 11.0139 1.3969 11.1417 1.52467C11.2694 1.65245 11.3333 1.81079 11.3333 1.99967V7.99967C11.3333 8.18856 11.2694 8.3469 11.1417 8.47467C11.0139 8.60245 10.8556 8.66634 10.6667 8.66634H4L1.33333 11.333Z"
        fill="#1D1B20" />
</svg>
