<svg width="48" height="24" viewBox="0 0 48 24" fill="none" xmlns="http://www.w3.org/2000/svg">
    <rect x="0.5" y="0.5" width="47" height="23" rx="3.5" stroke="#E6E0E9" />
    <path fill-rule="evenodd" clip-rule="evenodd"
        d="M38.2712 17.1597L44 11.9337L41.2864 6.52734L38.2712 17.1597Z" fill="#097939" />
    <path fill-rule="evenodd" clip-rule="evenodd"
        d="M36.3416 17.1597L42.0704 11.9337L39.3568 6.52734L36.3416 17.1597Z" fill="#ED752E" />
    <path fill-rule="evenodd" clip-rule="evenodd"
        d="M8.96404 6.58893L6.55204 15.1789L15.1148 15.2389L17.4668 6.58893H19.6376L16.8176 16.6449C16.7096 17.0289 16.2984 17.3409 15.8996 17.3409H4.92404C4.25844 17.3409 3.86404 16.8209 4.04404 16.1809L6.73364 6.58893H8.96404ZM35.4368 6.52893H37.6076L34.5924 17.3409H32.3604L35.4368 6.52893ZM19.8792 11.0337L30.7336 10.9737L31.4576 8.69093H20.4216L21.0848 6.58853L32.8448 6.48053C33.5768 6.47373 34.0128 7.04053 33.82 7.74733L32.712 11.7969C32.5188 12.5033 31.768 13.0757 31.036 13.0757H21.3264L20.1816 17.5209H18.0696L19.8792 11.0337Z"
        fill="#747474" />
</svg>
