<svg width="15" height="15" viewBox="0 0 15 15" fill="none" xmlns="http://www.w3.org/2000/svg">
    <g clip-path="url(#clip0_0_9)">
        <path
            d="M14.8537 7.6729C14.8537 7.16307 14.8123 6.65049 14.7241 6.14893H7.6499V9.03704H11.701C11.5329 9.96851 10.9927 10.7925 10.2018 11.3161V13.1901H12.6187C14.0379 11.8838 14.8537 9.95473 14.8537 7.6729Z"
            fill="#4285F4" />
        <path
            d="M7.64994 15.0003C9.67272 15.0003 11.3786 14.3362 12.6215 13.1898L10.2046 11.3158C9.53218 11.7733 8.66409 12.0323 7.6527 12.0323C5.69606 12.0323 4.03704 10.7123 3.44178 8.9375H0.947754V10.8693C2.22095 13.4019 4.81419 15.0003 7.64994 15.0003Z"
            fill="#34A853" />
        <path
            d="M3.43899 8.93769C3.12482 8.00622 3.12482 6.99759 3.43899 6.06612V4.13428H0.947716C-0.116036 6.25351 -0.116036 8.7503 0.947716 10.8695L3.43899 8.93769Z"
            fill="#FBBC04" />
        <path
            d="M7.64994 2.96854C8.7192 2.952 9.75264 3.35435 10.527 4.09292L12.6683 1.95164C11.3124 0.67844 9.51288 -0.0215412 7.64994 0.000505416C4.81419 0.000505416 2.22095 1.59889 0.947754 4.13425L3.43903 6.06609C4.03153 4.28858 5.6933 2.96854 7.64994 2.96854Z"
            fill="#EA4335" />
    </g>
    <defs>
        <clipPath id="clip0_0_9">
            <rect width="15" height="15" fill="white" />
        </clipPath>
    </defs>
</svg>
