<svg width="40" height="11" viewBox="0 0 40 11" fill="none" xmlns="http://www.w3.org/2000/svg">
    <path
        d="M5.43147 10.9989C8.43119 10.9989 10.8629 8.53673 10.8629 5.49946C10.8629 2.46219 8.43119 0 5.43147 0C2.43175 0 0 2.46219 0 5.49946C0 8.53673 2.43175 10.9989 5.43147 10.9989Z"
        fill="#5F259F" />
    <path
        d="M26.9719 7.78715V5.7901C26.9719 5.29857 26.7898 5.05281 26.3347 5.05281C26.1527 5.05281 25.9403 5.08359 25.8189 5.11421V8.03291C25.8189 8.12509 25.7278 8.21727 25.6368 8.21727H24.9389C24.8478 8.21727 24.7568 8.12509 24.7568 8.03291V4.62268C24.7568 4.49972 24.8478 4.4077 24.9389 4.37692C25.3941 4.22334 25.8491 4.13115 26.3346 4.13115C27.4269 4.13115 28.0338 4.71486 28.0338 5.79026V8.06369C28.0338 8.15587 27.9428 8.24806 27.8517 8.24806H27.4269C27.154 8.24789 26.9719 8.03291 26.9719 7.78715ZM29.7028 6.58895L29.6724 6.86549C29.6724 7.23422 29.9151 7.4492 30.3095 7.4492C30.6129 7.4492 30.886 7.35702 31.1896 7.20344C31.22 7.20344 31.2502 7.17266 31.2806 7.17266C31.3412 7.17266 31.3716 7.20344 31.402 7.23406C31.4324 7.26484 31.4931 7.35702 31.4931 7.35702C31.5537 7.4492 31.6145 7.572 31.6145 7.66419C31.6145 7.81777 31.5235 7.97135 31.4022 8.03291C31.0684 8.21727 30.674 8.30946 30.2492 8.30946C29.7638 8.30946 29.3692 8.18649 29.0658 7.94073C28.7625 7.66419 28.5804 7.29562 28.5804 6.83471V5.63652C28.5804 4.68408 29.1873 4.10037 30.219 4.10037C31.2203 4.10037 31.7968 4.65346 31.7968 5.63652V6.37381C31.7968 6.46599 31.7057 6.55817 31.6147 6.55817H29.7031L29.7028 6.58895ZM29.6724 5.91306H30.8254V5.6059C30.8254 5.23717 30.6131 4.99141 30.2489 4.99141C29.8847 4.99141 29.6724 5.20639 29.6724 5.6059V5.91306ZM37.41 6.58895L37.3796 6.86549C37.3796 7.23422 37.6223 7.4492 38.0167 7.4492C38.3201 7.4492 38.5932 7.35702 38.8967 7.20344C38.9271 7.20344 38.9574 7.17266 38.9878 7.17266C39.0484 7.17266 39.0788 7.20344 39.1092 7.23406C39.1396 7.26484 39.2003 7.35702 39.2003 7.35702C39.2609 7.4492 39.3217 7.572 39.3217 7.66419C39.3217 7.81777 39.2307 7.97135 39.1094 8.03291C38.7756 8.21727 38.3812 8.30946 37.9564 8.30946C37.471 8.30946 37.0764 8.18649 36.773 7.94073C36.4697 7.66419 36.2876 7.29562 36.2876 6.83471V5.63652C36.2876 4.68408 36.8945 4.10037 37.9262 4.10037C38.9275 4.10037 39.504 4.65346 39.504 5.63652V6.37381C39.504 6.46599 39.4129 6.55817 39.3219 6.55817H37.4103V6.58895H37.41ZM37.3796 5.91306H38.5326V5.6059C38.5326 5.23717 38.3203 4.99141 37.9561 4.99141C37.5919 4.99141 37.3796 5.20639 37.3796 5.6059V5.91306ZM19.5378 8.24789H19.9626C20.0536 8.24789 20.1447 8.15571 20.1447 8.06353V5.7901C20.1447 4.74548 19.5984 4.13099 18.6882 4.13099C18.4151 4.13099 18.1117 4.19239 17.9296 4.25396V3.11716C17.9296 2.87139 17.7173 2.65625 17.4744 2.65625H17.0496C16.9585 2.65625 16.8675 2.74843 16.8675 2.84061V8.06353C16.8675 8.15571 16.9585 8.24789 17.0496 8.24789H17.7475C17.8386 8.24789 17.9296 8.15571 17.9296 8.06353V5.17561C18.0813 5.11421 18.2938 5.08343 18.4455 5.08343C18.9007 5.08343 19.0826 5.29841 19.0826 5.82072V7.81777C19.113 8.03291 19.2951 8.24789 19.5378 8.24789ZM24.1197 5.66713V6.80393C24.1197 7.75637 23.4825 8.34008 22.4204 8.34008C21.3887 8.34008 20.7212 7.75637 20.7212 6.80393V5.66713C20.7212 4.7147 21.3583 4.13099 22.4204 4.13099C23.4825 4.13099 24.1197 4.71486 24.1197 5.66713ZM23.0577 5.66713C23.0577 5.29841 22.8454 5.05265 22.4508 5.05265C22.0562 5.05265 21.8439 5.26763 21.8439 5.66713V6.80393C21.8439 7.17266 22.0562 7.38764 22.4508 7.38764C22.8454 7.38764 23.0577 7.17266 23.0577 6.80393V5.66713ZM16.2912 5.14499C16.2912 6.1282 15.563 6.80409 14.5919 6.80409C14.3492 6.80409 14.1367 6.77331 13.9244 6.68113V8.06369C13.9244 8.15587 13.8334 8.24806 13.7423 8.24806H13.0444C12.9533 8.24806 12.8623 8.15587 12.8623 8.06369V3.17872C12.8623 3.05576 12.9533 2.96374 13.0444 2.93296C13.4996 2.77937 13.9546 2.68719 14.4401 2.68719C15.5324 2.68719 16.291 3.36308 16.291 4.4077C16.2912 4.40754 16.2912 5.14499 16.2912 5.14499ZM15.1988 4.34614C15.1988 3.85461 14.8651 3.60885 14.4099 3.60885C14.1367 3.60885 13.9546 3.70103 13.9546 3.70103V5.7287C14.1367 5.82088 14.2278 5.85166 14.4401 5.85166C14.8953 5.85166 15.2291 5.57512 15.2291 5.11437V4.3463H15.1988V4.34614ZM35.8928 5.14499C35.8928 6.1282 35.1647 6.80409 34.1936 6.80409C33.9509 6.80409 33.7384 6.77331 33.5261 6.68113V8.06369C33.5261 8.15587 33.435 8.24806 33.344 8.24806H32.6461C32.555 8.24806 32.464 8.15587 32.464 8.06369V3.17872C32.464 3.05576 32.555 2.96374 32.6461 2.93296C33.1013 2.77937 33.5563 2.68719 34.0418 2.68719C35.1341 2.68719 35.8927 3.36308 35.8927 4.4077C35.8928 4.40754 35.8928 5.14499 35.8928 5.14499ZM34.8005 4.34614C34.8005 3.85461 34.4667 3.60885 34.0115 3.60885C33.7384 3.60885 33.5563 3.70103 33.5563 3.70103V5.7287C33.7384 5.82088 33.8294 5.85166 34.0418 5.85166C34.497 5.85166 34.8307 5.57512 34.8307 5.11437V4.3463H34.8005V4.34614Z"
        fill="#5F259F" />
    <path
        d="M7.84641 4.04197C7.84641 3.82701 7.66658 3.64266 7.45689 3.64266H6.73773L5.08957 1.70737C4.93976 1.52302 4.70004 1.46163 4.46032 1.52302L3.89097 1.70737C3.80106 1.73814 3.77103 1.86093 3.83108 1.92233L5.62905 3.67344H2.90176C2.81184 3.67344 2.75195 3.73484 2.75195 3.82701V4.13414C2.75195 4.3491 2.93178 4.53345 3.14148 4.53345H3.56102V6.00805C3.56102 7.11396 4.13037 7.75916 5.08941 7.75916C5.38902 7.75916 5.62889 7.72838 5.9285 7.6056V8.58872C5.9285 8.86523 6.1382 9.08019 6.40794 9.08019H6.82749C6.9174 9.08019 7.00731 8.98802 7.00731 8.89585V4.50283H7.6966C7.78652 4.50283 7.84641 4.44144 7.84641 4.34927V4.04197ZM5.9285 6.68387C5.74867 6.77604 5.50895 6.80682 5.32913 6.80682C4.84969 6.80682 4.60997 6.56108 4.60997 6.00805V4.53345H5.9285V6.68387Z"
        fill="white" />
</svg>
