<svg width="328" height="172" viewBox="0 0 328 172" fill="none" xmlns="http://www.w3.org/2000/svg">
    <mask id="path-1-inside-1_55616_26048" fill="white">
        <path fill-rule="evenodd" clip-rule="evenodd"
            d="M122.492 6.58984C121.496 6.58984 120.536 6.21818 119.799 5.54756L114.851 1.04228C113.325 -0.347461 110.991 -0.347426 109.465 1.04236L104.517 5.54748C103.781 6.21815 102.82 6.58984 101.824 6.58984H4C1.79086 6.58984 0 8.3807 0 10.5898V167.59C0 169.799 1.79086 171.59 4 171.59H324C326.209 171.59 328 169.799 328 167.59V10.5898C328 8.3807 326.209 6.58984 324 6.58984H122.492Z" />
    </mask>
    <path fill-rule="evenodd" clip-rule="evenodd"
        d="M122.492 6.58984C121.496 6.58984 120.536 6.21818 119.799 5.54756L114.851 1.04228C113.325 -0.347461 110.991 -0.347426 109.465 1.04236L104.517 5.54748C103.781 6.21815 102.82 6.58984 101.824 6.58984H4C1.79086 6.58984 0 8.3807 0 10.5898V167.59C0 169.799 1.79086 171.59 4 171.59H324C326.209 171.59 328 169.799 328 167.59V10.5898C328 8.3807 326.209 6.58984 324 6.58984H122.492Z"
        fill="#FFFBFE" />
    <path
        d="M119.799 5.54756L120.473 4.80813L119.799 5.54756ZM109.465 1.04236L110.138 1.78177L109.465 1.04236ZM114.178 1.78171L119.126 6.28699L120.473 4.80813L115.524 0.302848L114.178 1.78171ZM105.191 6.28689L110.138 1.78177L108.792 0.302951L103.844 4.80807L105.191 6.28689ZM4 7.58984H101.824V5.58984H4V7.58984ZM1 10.5898C1 8.93299 2.34314 7.58984 4 7.58984V5.58984C1.23858 5.58984 -1 7.82841 -1 10.5898H1ZM1 167.59V10.5898H-1V167.59H1ZM4 170.59C2.34314 170.59 1 169.247 1 167.59H-1C-1 170.351 1.23857 172.59 4 172.59V170.59ZM324 170.59H4V172.59H324V170.59ZM327 167.59C327 169.247 325.657 170.59 324 170.59V172.59C326.761 172.59 329 170.351 329 167.59H327ZM327 10.5898V167.59H329V10.5898H327ZM324 7.58984C325.657 7.58984 327 8.93299 327 10.5898H329C329 7.82842 326.761 5.58984 324 5.58984V7.58984ZM122.492 7.58984H324V5.58984H122.492V7.58984ZM103.844 4.80807C103.292 5.31107 102.571 5.58984 101.824 5.58984V7.58984C103.069 7.58984 104.27 7.12522 105.191 6.28689L103.844 4.80807ZM119.126 6.28699C120.047 7.12526 121.247 7.58984 122.492 7.58984V5.58984C121.745 5.58984 121.025 5.31109 120.473 4.80813L119.126 6.28699ZM115.524 0.302848C113.616 -1.43432 110.7 -1.43428 108.792 0.302951L110.138 1.78177C111.283 0.73943 113.033 0.739404 114.178 1.78171L115.524 0.302848Z"
        fill="#6750A4" mask="url(#path-1-inside-1_55616_26048)" />
</svg>
