<svg width="16" height="16" viewBox="0 0 16 16" fill="none" xmlns="http://www.w3.org/2000/svg">
    <path
        d="M5.33348 9.29494C5.17023 9.29494 5.03114 9.23747 4.91618 9.12251C4.80122 9.00756 4.74375 8.86845 4.74375 8.70521C4.74375 8.54197 4.80122 8.40287 4.91618 8.28791C5.03114 8.17295 5.17023 8.11548 5.33348 8.11548C5.49672 8.11548 5.63582 8.17295 5.75078 8.28791C5.86574 8.40287 5.92321 8.54197 5.92321 8.70521C5.92321 8.86845 5.86574 9.00756 5.75078 9.12251C5.63582 9.23747 5.49672 9.29494 5.33348 9.29494ZM8.00015 9.29494C7.8369 9.29494 7.6978 9.23747 7.58285 9.12251C7.46789 9.00756 7.41041 8.86845 7.41041 8.70521C7.41041 8.54197 7.46789 8.40287 7.58285 8.28791C7.6978 8.17295 7.8369 8.11548 8.00015 8.11548C8.16339 8.11548 8.30249 8.17295 8.41745 8.28791C8.5324 8.40287 8.58988 8.54197 8.58988 8.70521C8.58988 8.86845 8.5324 9.00756 8.41745 9.12251C8.30249 9.23747 8.16339 9.29494 8.00015 9.29494ZM10.6668 9.29494C10.5036 9.29494 10.3645 9.23747 10.2495 9.12251C10.1346 9.00756 10.0771 8.86845 10.0771 8.70521C10.0771 8.54197 10.1346 8.40287 10.2495 8.28791C10.3645 8.17295 10.5036 8.11548 10.6668 8.11548C10.8301 8.11548 10.9692 8.17295 11.0841 8.28791C11.1991 8.40287 11.2565 8.54197 11.2565 8.70521C11.2565 8.86845 11.1991 9.00756 11.0841 9.12251C10.9692 9.23747 10.8301 9.29494 10.6668 9.29494ZM3.53863 14.3334C3.20187 14.3334 2.91683 14.2167 2.6835 13.9834C2.45016 13.7501 2.3335 13.465 2.3335 13.1283V4.20523C2.3335 3.86847 2.45016 3.58343 2.6835 3.35009C2.91683 3.11676 3.20187 3.00009 3.53863 3.00009H4.46171V1.58984H5.48733V3.00009H10.5386V1.58984H11.5386V3.00009H12.4617C12.7984 3.00009 13.0835 3.11676 13.3168 3.35009C13.5501 3.58343 13.6668 3.86847 13.6668 4.20523V13.1283C13.6668 13.465 13.5501 13.7501 13.3168 13.9834C13.0835 14.2167 12.7984 14.3334 12.4617 14.3334H3.53863ZM3.53863 13.3334H12.4617C12.513 13.3334 12.56 13.312 12.6027 13.2693C12.6454 13.2266 12.6668 13.1795 12.6668 13.1283V6.87189H3.33348V13.1283C3.33348 13.1795 3.35485 13.2266 3.39758 13.2693C3.44032 13.312 3.48734 13.3334 3.53863 13.3334Z"
        fill="#79767D" />
</svg>
