<svg width="24" height="10" viewBox="0 0 24 10" fill="none" xmlns="http://www.w3.org/2000/svg">
    <g clip-path="url(#clip0_0_46)">
        <path
            d="M1.68128 3.90083C1.68128 3.64169 1.89392 3.54198 2.24619 3.54198C2.7512 3.54198 3.38914 3.69486 3.89419 3.96732V2.40561C3.34265 2.18633 2.79773 2.09994 2.24619 2.09994C0.897129 2.09994 0 2.80437 0 3.98064C0 5.8147 2.52523 5.52234 2.52523 6.31317C2.52523 6.6188 2.25946 6.71852 1.88729 6.71852C1.33574 6.71852 0.631308 6.49255 0.0730786 6.18687V7.76848C0.691117 8.0343 1.31579 8.14724 1.88729 8.14724C3.26952 8.14724 4.21982 7.46281 4.21982 6.27327C4.21319 4.29295 1.68128 4.64512 1.68128 3.90083ZM6.17356 0.770877L4.55209 1.11641L4.54545 6.43938C4.54545 7.42295 5.28311 8.14724 6.26663 8.14724C6.81155 8.14724 7.21026 8.04757 7.42954 7.92796V6.57895C7.21694 6.66534 6.16692 6.97102 6.16692 5.9875V3.62837H7.42954V2.21292H6.16692L6.17356 0.770877ZM9.4963 2.70466L9.38995 2.21292H7.95455V8.02762H9.61592V4.08694C10.0079 3.57525 10.6725 3.66828 10.8785 3.74136V2.21292C10.6659 2.13316 9.88837 1.98695 9.4963 2.70466ZM11.2839 2.21292H12.9519V8.02762H11.2839V2.21292ZM11.2839 1.70786L12.9519 1.34901V0L11.2839 0.352217V1.70786ZM16.4208 2.09994C15.7695 2.09994 15.3509 2.40561 15.1183 2.61831L15.0319 2.20628H13.5699V9.95477L15.2312 9.6026L15.2379 7.72194C15.4772 7.89474 15.8293 8.14061 16.4141 8.14061C17.6037 8.14061 18.6869 7.18367 18.6869 5.0771C18.6802 3.1499 17.5837 2.09994 16.4208 2.09994ZM16.0221 6.67861C15.63 6.67861 15.3974 6.53909 15.2379 6.3663L15.2312 3.90083C15.404 3.70813 15.6433 3.57525 16.0221 3.57525C16.6268 3.57525 17.0455 4.25305 17.0455 5.12359C17.0455 6.01408 16.6334 6.67861 16.0221 6.67861ZM23.9234 5.14354C23.9234 3.44231 23.0994 2.09994 21.5245 2.09994C19.9428 2.09994 18.9859 3.44236 18.9859 5.13027C18.9859 7.13049 20.1156 8.14061 21.7371 8.14061C22.5279 8.14061 23.126 7.96118 23.5779 7.70868V6.37957C23.126 6.60553 22.6077 6.7451 21.9498 6.7451C21.3051 6.7451 20.7336 6.51914 20.6606 5.73499H23.9102C23.9102 5.64855 23.9234 5.30301 23.9234 5.14354ZM20.6406 4.51223C20.6406 3.76131 21.0992 3.44895 21.5178 3.44895C21.9232 3.44895 22.3552 3.76131 22.3552 4.51223H20.6406Z"
            fill="#6772E5" />
    </g>
    <defs>
        <clipPath id="clip0_0_46">
            <rect width="23.9234" height="10" fill="white" />
        </clipPath>
    </defs>
</svg>
