<svg width="25" height="25" viewBox="0 0 25 25" fill="none" xmlns="http://www.w3.org/2000/svg">
    <path
        d="M7.29162 18.7502C6.99649 18.7502 6.74909 18.6504 6.54944 18.4507C6.34978 18.2511 6.24996 18.0037 6.24996 17.7085V15.6252H19.7916V6.25021H21.875C22.1701 6.25021 22.4175 6.35004 22.6171 6.54969C22.8168 6.74934 22.9166 6.99674 22.9166 7.29188V22.9169L18.75 18.7502H7.29162ZM2.08329 17.7085V3.12521C2.08329 2.83007 2.18312 2.58268 2.38277 2.38302C2.58242 2.18337 2.82982 2.08354 3.12496 2.08354H16.6666C16.9618 2.08354 17.2092 2.18337 17.4088 2.38302C17.6085 2.58268 17.7083 2.83007 17.7083 3.12521V12.5002C17.7083 12.7953 17.6085 13.0427 17.4088 13.2424C17.2092 13.4421 16.9618 13.5419 16.6666 13.5419H6.24996L2.08329 17.7085Z"
        fill="white" />
</svg>
