<svg width="24" height="24" viewBox="0 0 24 24" fill="none" xmlns="http://www.w3.org/2000/svg">
    <g clip-path="url(#clip0_0_976)">
        <path
            d="M12 22C17.5228 22 22 17.5228 22 12C22 6.47715 17.5228 2 12 2C6.47715 2 2 6.47715 2 12C2 17.5228 6.47715 22 12 22Z"
            fill="#F0F0F0" />
        <path
            d="M12 1.99902C8.03543 1.99902 4.60981 4.30625 2.99231 7.65121H21.0077C19.3903 4.30625 15.9646 1.99902 12 1.99902Z"
            fill="#FF9811" />
        <path
            d="M12 21.9998C15.9646 21.9998 19.3903 19.6926 21.0078 16.3477H2.99231C4.60981 19.6926 8.03543 21.9998 12 21.9998Z"
            fill="#6DA544" />
        <path
            d="M12.0003 15.4775C13.9213 15.4775 15.4785 13.9202 15.4785 11.9992C15.4785 10.0783 13.9213 8.521 12.0003 8.521C10.0793 8.521 8.52203 10.0783 8.52203 11.9992C8.52203 13.9202 10.0793 15.4775 12.0003 15.4775Z"
            fill="#0052B4" />
        <path
            d="M12.0001 14.1735C13.2007 14.1735 14.174 13.2002 14.174 11.9996C14.174 10.799 13.2007 9.82568 12.0001 9.82568C10.7995 9.82568 9.82623 10.799 9.82623 11.9996C9.82623 13.2002 10.7995 14.1735 12.0001 14.1735Z"
            fill="#F0F0F0" />
        <path
            d="M12.0003 9.31738L12.671 10.8384L14.3235 10.6587L13.3416 12L14.3235 13.3412L12.671 13.1615L12.0003 14.6825L11.3296 13.1615L9.67712 13.3412L10.659 12L9.67712 10.6587L11.3296 10.8384L12.0003 9.31738Z"
            fill="#0052B4" />
    </g>
    <defs>
        <clipPath id="clip0_0_976">
            <rect width="20" height="20" fill="white" transform="translate(2 2)" />
        </clipPath>
    </defs>
</svg>
