<svg width="17" height="17" viewBox="0 0 17 17" fill="none" xmlns="http://www.w3.org/2000/svg">
    <path
        d="M7.6494 12.749H9.34927V9.34927H12.749V7.6494H9.34927V4.24967H7.6494V7.6494H4.24967V9.34927H7.6494V12.749ZM8.49934 16.9987C7.3236 16.9987 6.21868 16.7756 5.1846 16.3294C4.15051 15.8831 3.251 15.2776 2.48606 14.5126C1.72112 13.7477 1.11554 12.8482 0.669323 11.8141C0.223108 10.78 0 9.67508 0 8.49934C0 7.3236 0.223108 6.21868 0.669323 5.1846C1.11554 4.15051 1.72112 3.251 2.48606 2.48606C3.251 1.72112 4.15051 1.11554 5.1846 0.669323C6.21868 0.223108 7.3236 0 8.49934 0C9.67508 0 10.78 0.223108 11.8141 0.669323C12.8482 1.11554 13.7477 1.72112 14.5126 2.48606C15.2776 3.251 15.8831 4.15051 16.3294 5.1846C16.7756 6.21868 16.9987 7.3236 16.9987 8.49934C16.9987 9.67508 16.7756 10.78 16.3294 11.8141C15.8831 12.8482 15.2776 13.7477 14.5126 14.5126C13.7477 15.2776 12.8482 15.8831 11.8141 16.3294C10.78 16.7756 9.67508 16.9987 8.49934 16.9987ZM8.49934 15.2988C10.3975 15.2988 12.0053 14.6401 13.3227 13.3227C14.6401 12.0053 15.2988 10.3975 15.2988 8.49934C15.2988 6.60115 14.6401 4.99336 13.3227 3.67596C12.0053 2.35857 10.3975 1.69987 8.49934 1.69987C6.60115 1.69987 4.99336 2.35857 3.67596 3.67596C2.35857 4.99336 1.69987 6.60115 1.69987 8.49934C1.69987 10.3975 2.35857 12.0053 3.67596 13.3227C4.99336 14.6401 6.60115 15.2988 8.49934 15.2988Z"
        fill="#605D64" />
</svg>
