<svg width="24" height="24" viewBox="0 0 24 24" fill="none" xmlns="http://www.w3.org/2000/svg">
    <g clip-path="url(#clip0_0_558)">
        <path
            d="M12 22C17.5228 22 22 17.5228 22 12C22 6.47715 17.5228 2 12 2C6.47715 2 2 6.47715 2 12C2 17.5228 6.47715 22 12 22Z"
            fill="#F0F0F0" />
        <path
            d="M21.3775 8.52246H2.62153C2.21961 9.60582 1.99957 10.7775 1.99957 12.0007C1.99957 13.2239 2.21961 14.3957 2.62153 15.4789H21.3776C21.7796 14.3957 21.9996 13.2239 21.9996 12.0007C21.9996 10.7775 21.7796 9.60582 21.3775 8.52246Z"
            fill="#A2001D" />
        <path
            d="M12.0289 22.0011C15.454 22.0011 18.4765 20.2788 20.2788 17.6533H3.77911C5.58138 20.2788 8.6038 22.0011 12.0289 22.0011Z"
            fill="#6DA544" />
        <path
            d="M12.0286 2.00049C15.4536 2.00049 18.4761 3.72283 20.2784 6.3483H3.77875C5.58101 3.72283 8.60343 2.00049 12.0286 2.00049Z"
            fill="#6DA544" />
        <path
            d="M11.9996 8.52246L12.8629 11.1795H15.6568L13.3965 12.8218L14.2599 15.4789L11.9996 13.8368L9.7392 15.4789L10.6026 12.8218L8.34229 11.1795H11.1362L11.9996 8.52246Z"
            fill="#FFDA44" />
    </g>
    <defs>
        <clipPath id="clip0_0_558">
            <rect width="20" height="20" fill="white" transform="translate(2 2)" />
        </clipPath>
    </defs>
</svg>
