<svg width="16" height="16" viewBox="0 0 16 16" fill="none" xmlns="http://www.w3.org/2000/svg">
    <path
        d="M10.3152 11.0173L11.0178 10.3147L8.4998 7.79662V4.666H7.49984V8.2019L10.3152 11.0173ZM8.00094 14.3327C7.12498 14.3327 6.30163 14.1664 5.53087 13.834C4.7601 13.5015 4.08965 13.0504 3.5195 12.4805C2.94935 11.9106 2.49798 11.2404 2.16539 10.47C1.8328 9.69959 1.6665 8.87641 1.6665 8.00045C1.6665 7.12449 1.83273 6.30114 2.16517 5.53038C2.49762 4.75962 2.94878 4.08916 3.51867 3.51902C4.08857 2.94886 4.75873 2.49749 5.52915 2.1649C6.29957 1.83231 7.12275 1.66602 7.9987 1.66602C8.87466 1.66602 9.69802 1.83224 10.4688 2.16468C11.2395 2.49713 11.91 2.94829 12.4801 3.51818C13.0503 4.08808 13.5017 4.75824 13.8343 5.52867C14.1668 6.29908 14.3331 7.12226 14.3331 7.99822C14.3331 8.87417 14.1669 9.69753 13.8345 10.4683C13.502 11.239 13.0509 11.9095 12.481 12.4797C11.9111 13.0498 11.2409 13.5012 10.4705 13.8338C9.70008 14.1664 8.87689 14.3327 8.00094 14.3327Z"
        fill="#79767D" />
</svg>
