<svg width="18" height="18" viewBox="0 0 18 18" fill="none" xmlns="http://www.w3.org/2000/svg">
    <path
        d="M16.1856 14.0275C15.9163 14.6563 15.5975 15.2352 15.2282 15.7674C14.7248 16.4929 14.3125 16.9952 13.9949 17.274C13.5024 17.7318 12.9748 17.9662 12.4098 17.9796C12.0042 17.9796 11.515 17.8629 10.9456 17.6262C10.3744 17.3907 9.84937 17.274 9.36934 17.274C8.8659 17.274 8.32596 17.3907 7.74843 17.6262C7.17001 17.8629 6.70405 17.9862 6.34779 17.9985C5.80599 18.0218 5.26594 17.7807 4.72688 17.274C4.38282 16.9707 3.95248 16.4507 3.43694 15.7141C2.88381 14.9274 2.42906 14.0152 2.07281 12.9753C1.69126 11.852 1.5 10.7642 1.5 9.71115C1.5 8.50485 1.75788 7.46444 2.2744 6.59258C2.68035 5.89227 3.22039 5.33984 3.89631 4.9343C4.57222 4.52875 5.30254 4.32209 6.08904 4.30887C6.51938 4.30887 7.08373 4.44342 7.78503 4.70786C8.48436 4.97319 8.93339 5.10774 9.13026 5.10774C9.27744 5.10774 9.77627 4.95041 10.6219 4.63675C11.4216 4.34587 12.0965 4.22543 12.6494 4.27287C14.1477 4.39509 15.2733 4.99207 16.0218 6.0676C14.6819 6.88824 14.0191 8.03765 14.0322 9.51216C14.0443 10.6607 14.4565 11.6164 15.2667 12.3753C15.6338 12.7275 16.0438 12.9997 16.5 13.193C16.4011 13.483 16.2966 13.7608 16.1856 14.0275ZM12.7495 0.360103C12.7495 1.26031 12.4241 2.10083 11.7755 2.8788C10.9929 3.80366 10.0462 4.33809 9.01968 4.25376C9.0066 4.14577 8.99901 4.0321 8.99901 3.91266C8.99901 3.04846 9.37121 2.1236 10.0322 1.3674C10.3622 0.984528 10.7818 0.666171 11.2908 0.412211C11.7986 0.162041 12.279 0.0236918 12.7308 0C12.744 0.120343 12.7495 0.240706 12.7495 0.360103Z"
        fill="black" />
</svg>
