<svg width="20" height="20" viewBox="0 0 20 20" fill="none" xmlns="http://www.w3.org/2000/svg">
    <path
        d="M5.83335 15.0003C5.59724 15.0003 5.39933 14.9205 5.2396 14.7607C5.07988 14.601 5.00002 14.4031 5.00002 14.167V12.5003H15.8334V5.00033H17.5C17.7361 5.00033 17.934 5.08019 18.0938 5.23991C18.2535 5.39963 18.3334 5.59755 18.3334 5.83366V18.3337L15 15.0003H5.83335ZM1.66669 14.167V2.50033C1.66669 2.26421 1.74655 2.0663 1.90627 1.90658C2.06599 1.74685 2.26391 1.66699 2.50002 1.66699H13.3334C13.5695 1.66699 13.7674 1.74685 13.9271 1.90658C14.0868 2.0663 14.1667 2.26421 14.1667 2.50033V10.0003C14.1667 10.2364 14.0868 10.4344 13.9271 10.5941C13.7674 10.7538 13.5695 10.8337 13.3334 10.8337H5.00002L1.66669 14.167Z"
        fill="#6750A4" />
</svg>
