<svg width="24" height="24" viewBox="0 0 24 24" fill="none" xmlns="http://www.w3.org/2000/svg">
    <g clip-path="url(#clip0_0_206)">
        <path
            d="M16.3474 2.99178C15.0327 2.35607 13.5578 1.99951 11.9996 1.99951C10.4414 1.99951 8.96648 2.35607 7.6518 2.99178L6.78223 11.9995L7.6518 21.0072C8.96648 21.6429 10.4414 21.9995 11.9996 21.9995C13.5578 21.9995 15.0327 21.6429 16.3474 21.0072L17.217 11.9995L16.3474 2.99178Z"
            fill="#F0F0F0" />
        <path
            d="M7.65213 2.99268C4.30717 4.6101 1.99994 8.03545 1.99994 12.0001C1.99994 15.9647 4.30717 19.39 7.65213 21.0074V2.99268Z"
            fill="#6DA544" />
        <path
            d="M16.3477 2.99268V21.0074C19.6926 19.39 21.9998 15.9646 21.9998 12.0001C21.9998 8.03549 19.6926 4.6101 16.3477 2.99268Z"
            fill="#6DA544" />
        <path d="M14.6087 15.0431L12 6.78223L9.3913 15.0431H11.3478V17.217H12.6522V15.0431H14.6087Z"
            fill="#6DA544" />
    </g>
    <defs>
        <clipPath id="clip0_0_206">
            <rect width="20" height="20" fill="white" transform="translate(2 2)" />
        </clipPath>
    </defs>
</svg>
