<svg width="25" height="25" viewBox="0 0 25 25" fill="none" xmlns="http://www.w3.org/2000/svg">
    <path
        d="M18.4896 15.5731L16.9792 14.0627C17.2222 13.6634 17.4045 13.2467 17.526 12.8127C17.6476 12.3787 17.7083 11.9273 17.7083 11.4585H19.7917C19.7917 12.2224 19.6788 12.9473 19.4531 13.633C19.2274 14.3188 18.9063 14.9655 18.4896 15.5731ZM15.4167 12.4481L9.37501 6.40646V5.20854C9.37501 4.34049 9.67883 3.60264 10.2865 2.995C10.8941 2.38736 11.632 2.08354 12.5 2.08354C13.3681 2.08354 14.1059 2.38736 14.7135 2.995C15.3212 3.60264 15.625 4.34049 15.625 5.20854V11.4585C15.625 11.6495 15.6033 11.8231 15.5599 11.9794C15.5165 12.1356 15.4688 12.2919 15.4167 12.4481ZM11.4583 21.8752V18.646C9.65279 18.403 8.15973 17.6 6.97917 16.2372C5.79862 14.8743 5.20834 13.2815 5.20834 11.4585H7.29167C7.29167 12.8995 7.79949 14.1278 8.81511 15.1434C9.83074 16.1591 11.059 16.6669 12.5 16.6669C13.0903 16.6669 13.6502 16.5757 14.1797 16.3934C14.7092 16.2111 15.191 15.9551 15.625 15.6252L17.1094 17.1096C16.6059 17.5089 16.0547 17.8431 15.4557 18.1122C14.8568 18.3813 14.2188 18.5592 13.5417 18.646V21.8752H11.4583ZM20.625 23.5419L1.45834 4.37521L2.91667 2.91688L22.0833 22.0835L20.625 23.5419Z"
        fill="#36343B" />
</svg>
