<svg width="16" height="16" viewBox="0 0 16 16" fill="none" xmlns="http://www.w3.org/2000/svg">
    <path
        d="M9.38444 8.48715H12.4101V7.48717H9.38444V8.48715ZM9.38444 6.56408H12.4101V5.5641H9.38444V6.56408ZM3.58959 10.4359H8.46134V10.1974C8.46134 9.75297 8.24147 9.40383 7.80174 9.14998C7.36199 8.89614 6.7699 8.76922 6.02547 8.76922C5.28103 8.76922 4.68893 8.89614 4.24919 9.14998C3.80945 9.40383 3.58959 9.75297 3.58959 10.1974V10.4359ZM6.02547 7.89742C6.34939 7.89742 6.62482 7.78396 6.85174 7.55703C7.07866 7.33011 7.19212 7.05468 7.19212 6.73075C7.19212 6.40683 7.07866 6.13141 6.85174 5.90448C6.62482 5.67756 6.34939 5.5641 6.02547 5.5641C5.70154 5.5641 5.42611 5.67756 5.19919 5.90448C4.97227 6.13141 4.8588 6.40683 4.8588 6.73075C4.8588 7.05468 4.97227 7.33011 5.19919 7.55703C5.42611 7.78396 5.70154 7.89742 6.02547 7.89742ZM2.87164 13C2.53488 13 2.24984 12.8833 2.0165 12.65C1.78317 12.4166 1.6665 12.1316 1.6665 11.7948V4.20513C1.6665 3.86838 1.78317 3.58333 2.0165 3.35C2.24984 3.11667 2.53488 3 2.87164 3H13.128C13.4648 3 13.7498 3.11667 13.9831 3.35C14.2165 3.58333 14.3331 3.86838 14.3331 4.20513V11.7948C14.3331 12.1316 14.2165 12.4166 13.9831 12.65C13.7498 12.8833 13.4648 13 13.128 13H2.87164Z"
        fill="#79767D" />
</svg>
