<svg width="24" height="24" viewBox="0 0 24 24" fill="none" xmlns="http://www.w3.org/2000/svg">
    <path
        d="M10.5 17C11.2 17 11.7917 16.7583 12.275 16.275C12.7583 15.7917 13 15.2 13 14.5V9H16V7H12V12.5C11.7833 12.35 11.55 12.2292 11.3 12.1375C11.05 12.0458 10.7833 12 10.5 12C9.8 12 9.20833 12.2417 8.725 12.725C8.24167 13.2083 8 13.8 8 14.5C8 15.2 8.24167 15.7917 8.725 16.275C9.20833 16.7583 9.8 17 10.5 17ZM4 20C3.45 20 2.97917 19.8042 2.5875 19.4125C2.19583 19.0208 2 18.55 2 18V6C2 5.45 2.19583 4.97917 2.5875 4.5875C2.97917 4.19583 3.45 4 4 4H20C20.55 4 21.0208 4.19583 21.4125 4.5875C21.8042 4.97917 22 5.45 22 6V18C22 18.55 21.8042 19.0208 21.4125 19.4125C21.0208 19.8042 20.55 20 20 20H4ZM4 18H20V6H4V18Z"
        fill="#49454F" />
</svg>
