<svg width="36" height="36" viewBox="0 0 36 36" fill="none" xmlns="http://www.w3.org/2000/svg">
    <path
        d="M7.5 31.5C6.675 31.5 5.96875 31.2063 5.38125 30.6188C4.79375 30.0313 4.5 29.325 4.5 28.5V7.5C4.5 6.675 4.79375 5.96875 5.38125 5.38125C5.96875 4.79375 6.675 4.5 7.5 4.5H28.5C29.325 4.5 30.0313 4.79375 30.6188 5.38125C31.2063 5.96875 31.5 6.675 31.5 7.5H19.5C17.725 7.5 16.2812 8.05625 15.1688 9.16875C14.0563 10.2812 13.5 11.725 13.5 13.5V22.5C13.5 24.275 14.0563 25.7188 15.1688 26.8313C16.2812 27.9438 17.725 28.5 19.5 28.5H31.5C31.5 29.325 31.2063 30.0313 30.6188 30.6188C30.0313 31.2063 29.325 31.5 28.5 31.5H7.5ZM19.5 25.5C18.675 25.5 17.9688 25.2063 17.3813 24.6188C16.7938 24.0312 16.5 23.325 16.5 22.5V13.5C16.5 12.675 16.7938 11.9688 17.3813 11.3813C17.9688 10.7938 18.675 10.5 19.5 10.5H30C30.825 10.5 31.5313 10.7938 32.1188 11.3813C32.7063 11.9688 33 12.675 33 13.5V22.5C33 23.325 32.7063 24.0312 32.1188 24.6188C31.5313 25.2063 30.825 25.5 30 25.5H19.5ZM24 20.25C24.65 20.25 25.1875 20.0375 25.6125 19.6125C26.0375 19.1875 26.25 18.65 26.25 18C26.25 17.35 26.0375 16.8125 25.6125 16.3875C25.1875 15.9625 24.65 15.75 24 15.75C23.35 15.75 22.8125 15.9625 22.3875 16.3875C21.9625 16.8125 21.75 17.35 21.75 18C21.75 18.65 21.9625 19.1875 22.3875 19.6125C22.8125 20.0375 23.35 20.25 24 20.25Z"
        fill="#6750A4" />
</svg>
