<svg width="25" height="25" viewBox="0 0 25 25" fill="none" xmlns="http://www.w3.org/2000/svg">
    <path fill-rule="evenodd" clip-rule="evenodd"
        d="M15.625 11.9789C15.625 13.7081 14.2292 15.1039 12.5 15.1039C10.7709 15.1039 9.37502 13.7081 9.37502 11.9789V5.72892C9.37502 3.99976 10.7709 2.60393 12.5 2.60393C14.2292 2.60393 15.625 3.99976 15.625 5.72892V11.9789ZM12.5 17.1873C15.375 17.1873 17.7084 14.8539 17.7084 11.9789H19.7917C19.7917 15.656 17.0729 18.6768 13.5417 19.1873V22.3956H11.4584V19.1873C7.9271 18.6768 5.20835 15.656 5.20835 11.9789H7.29169C7.29169 14.8539 9.62502 17.1873 12.5 17.1873Z"
        fill="#36343B" />
</svg>
