<svg width="48" height="24" viewBox="0 0 48 24" fill="none" xmlns="http://www.w3.org/2000/svg">
    <rect x="0.5" y="0.5" width="47" height="23" rx="3.5" stroke="#E6E0E9" />
    <path
        d="M25.1512 7.40653H23.5913C23.4014 7.40653 23.2472 7.56171 23.2472 7.7521V10.9846C23.2436 11.1847 23.0822 11.3449 22.8818 11.3449H22.2289C22.0264 11.3449 21.8628 11.1817 21.8628 10.9787L21.8569 7.7521C21.8569 7.56171 21.702 7.40653 21.5121 7.40653H19.952C19.7612 7.40653 19.6072 7.56171 19.6072 7.7521V11.295C19.6072 12.6407 20.5647 13.6002 21.9081 13.6002C21.9081 13.6002 22.9163 13.6002 22.9471 13.6061C23.1291 13.6267 23.2706 13.7797 23.2706 13.9679C23.2706 14.154 23.1319 14.3062 22.9521 14.329C22.9433 14.3304 22.9352 14.3326 22.9256 14.3341L20.6445 14.3423C20.4537 14.3423 20.2997 14.4975 20.2997 14.6879V16.2504C20.2997 16.4417 20.4538 16.596 20.6445 16.596H23.1949C24.539 16.596 25.4958 15.6372 25.4958 14.2908V7.75224C25.496 7.56171 25.342 7.40653 25.1512 7.40653ZM10.1897 7.40625H6.78013C6.59309 7.40625 6.44189 7.55834 6.44189 7.74523V9.27695C6.44189 9.2799 6.44259 9.28284 6.44259 9.28579C6.44259 9.29309 6.44189 9.30052 6.44189 9.30712V16.2396C6.44189 16.4279 6.58273 16.5816 6.75745 16.5859H8.34673C8.53671 16.5859 8.69155 16.4314 8.69155 16.2403L8.69743 13.8645H10.1898C11.4386 13.8645 12.3089 12.9962 12.3089 11.7395V9.53427C12.3087 8.27755 11.4385 7.40625 10.1897 7.40625ZM10.0525 11.2358C10.0525 11.4379 9.88883 11.6027 9.68709 11.6027L8.69729 11.6034V9.67023H9.68709C9.88883 9.67023 10.0525 9.83341 10.0525 10.0364V11.2358ZM16.2768 7.41509H14.1124C13.9208 7.41509 13.766 7.56073 13.766 7.73934V8.34742C13.766 8.35107 13.7667 8.35556 13.7667 8.35921C13.7667 8.36356 13.766 8.36805 13.766 8.3724V9.20554C13.766 9.39453 13.9304 9.54887 14.1328 9.54887H16.1939C16.3567 9.57454 16.4859 9.69366 16.5043 9.87971V10.0812C16.4859 10.2584 16.3582 10.3878 16.2027 10.4025H15.1821C13.8247 10.4025 12.8577 11.3062 12.8577 12.5754V14.3931C12.8577 15.6548 13.689 16.5527 15.0368 16.5527H17.8653C18.3731 16.5527 18.7847 16.1674 18.7847 15.693V9.76157C18.7847 8.32329 18.0451 7.41509 16.2768 7.41509ZM16.5248 14.1853C16.5248 14.2052 16.5219 14.2243 16.519 14.2427C16.5153 14.2599 16.5104 14.2769 16.5043 14.2935C16.4558 14.4303 16.3193 14.5295 16.1572 14.5295H15.5079C15.3054 14.5295 15.1402 14.375 15.1402 14.1853V13.8904C15.1402 13.8867 15.1395 13.8831 15.1395 13.8793L15.1402 13.0947V12.8491L15.1409 12.8469C15.1416 12.6579 15.3053 12.505 15.5077 12.505H16.1571C16.3603 12.505 16.5247 12.6586 16.5247 12.8491V14.1853H16.5248Z"
        fill="#233266" />
    <path
        d="M41.44 9.74666C41.1224 8.83636 40.2565 8.18267 39.2396 8.18267H39.2184C38.5573 8.18267 37.9614 8.45837 37.5374 8.90104C37.1126 8.45837 36.5168 8.18267 35.8564 8.18267H35.8351C35.254 8.18267 34.7228 8.39593 34.3149 8.7488V8.56935C34.3009 8.3906 34.1541 8.25016 33.973 8.25016H32.4131C32.2223 8.25016 32.0683 8.40463 32.0683 8.59643V17.0858C32.0683 17.2777 32.2224 17.4321 32.4131 17.4321H33.973C34.1469 17.4321 34.2899 17.3019 34.3128 17.1335L34.3121 11.0392C34.3121 11.0178 34.3128 10.9981 34.315 10.9781C34.3399 10.7061 34.5387 10.4826 34.8529 10.4545H35.1404C35.2718 10.4663 35.3826 10.5126 35.4699 10.5825C35.6057 10.6905 35.6811 10.8568 35.6811 11.0392L35.687 17.1035C35.687 17.2954 35.8418 17.4506 36.0318 17.4506H37.5917C37.7758 17.4506 37.9256 17.3035 37.9344 17.1204L37.9337 11.0312C37.933 10.8311 38.0254 10.6502 38.1875 10.5429C38.2675 10.4914 38.3637 10.4569 38.4744 10.4465H38.762C39.0995 10.476 39.3035 10.7326 39.3028 11.0312L39.3087 17.0873C39.3087 17.2793 39.4635 17.4336 39.6535 17.4336H41.2134C41.4033 17.4336 41.5582 17.2791 41.5582 17.0873V10.5739C41.5582 10.1297 41.5083 9.9407 41.44 9.74666ZM30.8798 8.27232H29.9876V6.81931C29.9876 6.64505 29.8468 6.50391 29.6729 6.50391C29.6523 6.50391 29.6326 6.50685 29.6134 6.5105C28.6243 6.78255 28.8224 8.15545 27.0168 8.27232H26.8414C26.8149 8.27232 26.79 8.27597 26.7658 8.28116H26.7644L26.7658 8.28187C26.6116 8.31638 26.4957 8.45318 26.4957 8.6179V10.1813C26.4957 10.3717 26.6506 10.5269 26.8412 10.5269H27.7826L27.7812 17.1559C27.7812 17.3449 27.9338 17.4979 28.1224 17.4979H29.6646C29.8525 17.4979 30.0051 17.3449 30.0051 17.1559L30.0058 10.5269H30.8797C31.0697 10.5269 31.2245 10.3717 31.2245 10.1813V8.61804C31.2248 8.4275 31.0699 8.27232 30.8798 8.27232Z"
        fill="#54C1F0" />
</svg>
