<svg width="25" height="25" viewBox="0 0 25 25" fill="none" xmlns="http://www.w3.org/2000/svg">
    <path
        d="M14.5833 21.5885V19.453C16.1458 19.0016 17.4045 18.1336 18.3594 16.8489C19.3142 15.5641 19.7917 14.1058 19.7917 12.4739C19.7917 10.8419 19.3142 9.38359 18.3594 8.09887C17.4045 6.81415 16.1458 5.94609 14.5833 5.4947V3.35929C16.7361 3.8454 18.4896 4.93481 19.8437 6.62751C21.1979 8.32022 21.875 10.269 21.875 12.4739C21.875 14.6787 21.1979 16.6275 19.8437 18.3202C18.4896 20.0129 16.7361 21.1023 14.5833 21.5885ZM3.125 15.6249V9.37491H7.29167L12.5 4.16658V20.8332L7.29167 15.6249H3.125ZM14.5833 16.6666V8.28116C15.3993 8.6631 16.0373 9.23602 16.4974 9.99991C16.9575 10.7638 17.1875 11.5971 17.1875 12.4999C17.1875 13.3853 16.9575 14.2056 16.4974 14.9608C16.0373 15.7161 15.3993 16.2846 14.5833 16.6666ZM10.4167 9.21866L8.17708 11.4582H5.20833V13.5416H8.17708L10.4167 15.7812V9.21866Z"
        fill="#36343B" />
</svg>
