<svg width="28" height="28" viewBox="0 0 28 28" fill="none" xmlns="http://www.w3.org/2000/svg">
    <path
        d="M2.79475 9.23832L2.79475 9.23832C3.43349 7.75804 4.29789 6.47538 5.38749 5.38578C6.47709 4.29618 7.75975 3.43178 9.24003 2.79304L9.24003 2.79304C10.7098 2.15883 12.2946 1.83984 13.9999 1.83984C15.7052 1.83984 17.29 2.15883 18.7597 2.79304L18.9576 2.33462L18.7597 2.79304C20.24 3.43178 21.5227 4.29618 22.6123 5.38578C23.7019 6.47538 24.5663 7.75804 25.205 9.23832L25.6641 9.04022L25.205 9.23832C25.8392 10.708 26.1582 12.2929 26.1582 13.9982C26.1582 15.7035 25.8392 17.2883 25.205 18.758L25.6641 18.9561L25.205 18.758C24.5663 20.2383 23.7019 21.521 22.6123 22.6106C21.5227 23.7002 20.24 24.5646 18.7597 25.2033L18.9578 25.6624L18.7597 25.2033C17.29 25.8375 15.7052 26.1565 13.9999 26.1565C12.2946 26.1565 10.7098 25.8375 9.24003 25.2033L9.04193 25.6624L9.24003 25.2033C7.75975 24.5646 6.47709 23.7002 5.38749 22.6106C4.29789 21.521 3.43349 20.2383 2.79475 18.758L2.33633 18.9558L2.79475 18.758C2.16054 17.2883 1.84155 15.7035 1.84155 13.9982C1.84155 12.2929 2.16054 10.708 2.79475 9.23832Z"
        fill="white" stroke="#CAC5CD" />
</svg>
