<svg width="16" height="16" viewBox="0 0 16 16" fill="none" xmlns="http://www.w3.org/2000/svg">
    <g clip-path="url(#clip0_55616_27472)">
        <path
            d="M12.7098 6.01269V4.93978H13.356V3.58266H12.7098V2.61328H11.0942V3.58266H10.3833V4.93978H11.0942V6.00118C9.22004 6.36567 7.76074 8.04101 7.76074 10.0478C7.76074 12.3202 9.61484 14.1689 11.8872 14.1689C14.1596 14.1689 16.0002 12.3202 16.0002 10.0478C16.0002 8.06272 14.5839 6.40121 12.7098 6.01269ZM11.8926 12.5532C10.5111 12.5532 9.38716 11.4292 9.38716 10.0477C9.38716 8.66619 10.5111 7.54223 11.8926 7.54223C13.2742 7.54223 14.3981 8.66619 14.3981 10.0477C14.3981 11.4293 13.2742 12.5532 11.8926 12.5532Z"
            fill="#79767D" />
        <path
            d="M8.24493 5.90623C8.24493 3.63388 6.40163 1.78516 4.12922 1.78516C1.85681 1.78516 0 3.63388 0 5.90623C0 7.914 1.46479 9.59005 3.33892 9.95337V11.7622L2.81003 11.3062L1.93946 12.3427L4.15578 14.2133L6.4393 12.3501L5.57094 11.2987L4.95461 11.7936V9.94058C6.82867 9.55108 8.24493 7.89028 8.24493 5.90623ZM1.62907 5.90623C1.62907 4.52474 2.75303 3.40078 4.13458 3.40078C5.51614 3.40078 6.6401 4.52474 6.6401 5.90623C6.6401 7.28779 5.51614 8.41174 4.13458 8.41174C2.75303 8.41174 1.62907 7.28779 1.62907 5.90623Z"
            fill="#79767D" />
    </g>
    <defs>
        <clipPath id="clip0_55616_27472">
            <rect width="16" height="16" fill="white" />
        </clipPath>
    </defs>
</svg>
