<svg width="20" height="20" viewBox="0 0 20 20" fill="none" xmlns="http://www.w3.org/2000/svg">
    <path
        d="M17.5298 10.2172C17.4953 10.15 17.4773 10.0762 17.4773 10.0013C17.4773 9.92646 17.4953 9.8526 17.5298 9.78545L18.1776 8.51382C18.5383 7.80578 18.2525 6.96188 17.527 6.59252L16.2239 5.92911C16.1549 5.89424 16.0952 5.8446 16.0493 5.78405C16.0034 5.72349 15.9727 5.65363 15.9595 5.57987L15.7046 4.18571C15.5627 3.40948 14.8144 2.88787 14.0013 2.99826L12.5408 3.1965C12.4636 3.20721 12.3848 3.20074 12.3106 3.17761C12.2364 3.15447 12.1688 3.11528 12.1129 3.06307L11.0527 2.07896C10.4624 1.53099 9.5376 1.53095 8.94731 2.07896L7.8871 3.06316C7.83119 3.11537 7.76354 3.15455 7.68935 3.17768C7.61516 3.20082 7.53642 3.20729 7.45921 3.19659L5.99865 2.99835C5.18531 2.88791 4.43728 3.40958 4.29537 4.18581L4.04053 5.5799C4.02728 5.65367 3.99655 5.72353 3.9507 5.78409C3.90485 5.84465 3.84511 5.89429 3.77609 5.92918L2.47304 6.59258C1.74753 6.96191 1.46175 7.80588 1.82244 8.51391L2.47023 9.78551C2.50471 9.85266 2.52264 9.92652 2.52264 10.0014C2.52264 10.0762 2.50471 10.1501 2.47023 10.2172L1.8224 11.4888C1.46172 12.1969 1.7475 13.0408 2.47301 13.4101L3.77605 14.0736C3.84508 14.1084 3.90483 14.1581 3.95069 14.2186C3.99654 14.2792 4.02728 14.349 4.04053 14.4228L4.29537 15.817C4.42455 16.5236 5.05603 17.0192 5.78177 17.0191C5.85325 17.0191 5.92578 17.0143 5.99869 17.0044L7.45924 16.8061C7.53645 16.7954 7.6152 16.8019 7.68939 16.825C7.76359 16.8481 7.83124 16.8873 7.88713 16.9396L8.94731 17.9237C9.24252 18.1977 9.62119 18.3347 9.99999 18.3346C10.3787 18.3346 10.7576 18.1976 11.0527 17.9237L12.1129 16.9396C12.2273 16.8334 12.3832 16.7849 12.5408 16.8061L14.0013 17.0044C14.8148 17.1148 15.5627 16.5932 15.7046 15.8169L15.9595 14.4228C15.9727 14.3491 16.0035 14.2792 16.0493 14.2186C16.0952 14.1581 16.1549 14.1084 16.2239 14.0736L17.527 13.4101C18.2525 13.0408 18.5383 12.1968 18.1776 11.4888L17.5298 10.2172ZM7.99637 5.67567C9.00909 5.67567 9.83301 6.46625 9.83301 7.43798C9.83301 8.40972 9.00909 9.2003 7.99637 9.2003C6.98365 9.2003 6.15973 8.40972 6.15973 7.43798C6.15973 6.46625 6.98365 5.67567 7.99637 5.67567ZM7.04838 13.5131C6.95058 13.607 6.82238 13.6539 6.69421 13.6539C6.56604 13.6539 6.43781 13.607 6.34004 13.5131C6.14443 13.3254 6.14443 13.0211 6.34004 12.8334L12.9516 6.48946C13.1471 6.30177 13.4643 6.30177 13.6599 6.48946C13.8556 6.67715 13.8556 6.98148 13.6599 7.16917L7.04838 13.5131ZM12.0035 14.327C10.9908 14.327 10.1669 13.5364 10.1669 12.5647C10.1669 11.5929 10.9908 10.8024 12.0035 10.8024C13.0163 10.8024 13.8402 11.5929 13.8402 12.5647C13.8402 13.5364 13.0163 14.327 12.0035 14.327Z"
        fill="#6750A4" />
    <path
        d="M12.0032 11.7635C11.5429 11.7635 11.1684 12.1228 11.1684 12.5645C11.1684 13.0062 11.5429 13.3655 12.0032 13.3655C12.4635 13.3655 12.838 13.0062 12.838 12.5645C12.838 12.1228 12.4635 11.7635 12.0032 11.7635ZM7.99604 6.63672C7.53572 6.63672 7.16122 6.99606 7.16122 7.43775C7.16122 7.87945 7.53572 8.23882 7.99604 8.23882C8.45636 8.23882 8.83089 7.87948 8.83089 7.43775C8.83086 6.99609 8.45636 6.63672 7.99604 6.63672Z"
        fill="#6750A4" />
</svg>
