<svg width="48" height="48" viewBox="0 0 48 48" fill="none" xmlns="http://www.w3.org/2000/svg">
    <path fill-rule="evenodd" clip-rule="evenodd"
        d="M22.878 0.17053H24.834V5.84639C24.7742 6.44788 22.8979 6.53046 22.878 5.91675V0.17053ZM0.0116378 21.6099H6.89824C7.91615 21.5899 8.56493 22.3721 8.52505 23.5351V29.7821C8.54499 30.4662 10.4612 30.5639 10.4515 29.6517V27.2755C10.4522 27.2082 10.4663 27.1417 10.4929 27.0799C10.5195 27.0181 10.558 26.9622 10.6063 26.9156C10.6546 26.8689 10.7117 26.8324 10.7742 26.8081C10.8367 26.7838 10.9034 26.7723 10.9704 26.7742H12.6969C13.0762 26.7742 13.3155 26.9144 13.3355 27.3258V45.5359C2.61648 39.4388 -0.207702 31.3965 0.0116378 21.6099ZM34.2063 2.1861V16.365C34.1665 17.9496 34.9149 18.0097 36.5218 18.0097H47.232C45.5143 10.6193 40.6937 5.2747 34.2063 2.1861ZM13.2664 2.5472V17.5387C13.3063 19.2132 12.5179 19.2733 10.8211 19.2733H0.371044C2.18753 11.4519 6.40168 5.80632 13.2664 2.5472ZM15.2424 24.2973C16.3702 26.5738 19.7338 29.1909 23.0973 29.1606L36.392 29.2608C34.4359 31.527 31.6409 33.5025 31.5412 35.8992C31.6283 36.7354 31.8992 37.5417 32.3341 38.26C32.7691 38.9782 33.3574 39.5905 34.0565 40.0525C37.3004 41.4363 39.8153 41.0351 41.9912 39.8116C38.4501 43.9013 33.6203 46.6475 28.3075 47.592C23.893 48.407 19.3407 47.9944 15.1427 46.3988L15.2424 24.2973ZM37.8087 29.7626C37.1527 31.0141 36.2924 32.1461 35.2636 33.1116C34.3454 33.8338 33.6169 34.6459 33.507 36.08C33.6169 37.7345 34.4053 38.7777 36.1921 38.9277H39.1763C40.7734 38.7371 41.9411 38.1054 42.46 36.6712C42.7198 34.1143 41.2126 33.5025 39.7954 32.3494C38.9757 31.6216 38.3016 30.7435 37.8092 29.7621L37.8087 29.7626ZM15.0129 1.79472C17.1054 0.800947 19.3622 0.202833 21.6704 0.0302947L21.8999 6.00666C21.8999 6.73959 22.7384 7.39044 23.926 7.43051C25.1536 7.40021 25.8714 6.91892 25.9521 5.9964V0C28.1312 0.162542 30.2756 0.638767 32.3198 1.41408V16.2751C32.3635 17.0812 32.6804 17.8481 33.2179 18.4482C33.7554 19.0484 34.481 19.4458 35.2743 19.5743L43.5587 19.6745C46.0741 19.5841 47.9902 21.3089 48 24.4278C47.8645 28.6926 46.6298 32.8491 44.4166 36.4909C44.5724 35.7747 44.5111 35.0281 44.2408 34.3472C43.9704 33.6663 43.5033 33.0822 42.8997 32.6704C41.642 31.3868 40.0852 30.8351 39.1062 28.7614L38.3577 27.3273H24.1357C21.9355 27.1851 19.8425 26.3223 18.177 24.871C16.2613 22.9787 15.1429 20.419 15.0532 17.7214L15.0129 1.79472ZM19.3846 11.1704C19.7399 11.1704 20.0872 11.2763 20.3827 11.4746C20.6781 11.673 20.9084 11.9549 21.0444 12.2847C21.1803 12.6145 21.2159 12.9774 21.1466 13.3275C21.0773 13.6777 20.9062 13.9993 20.6549 14.2517C20.4037 14.5042 20.0836 14.6761 19.7351 14.7457C19.3866 14.8154 19.0253 14.7796 18.6971 14.643C18.3688 14.5064 18.0882 14.275 17.8908 13.9782C17.6934 13.6814 17.588 13.3324 17.588 12.9754C17.588 12.7384 17.6344 12.5037 17.7247 12.2847C17.8149 12.0657 17.9473 11.8667 18.1141 11.6991C18.281 11.5316 18.479 11.3986 18.697 11.308C18.915 11.2174 19.1487 11.1703 19.3846 11.1704ZM27.988 11.1704C28.3433 11.1704 28.6906 11.2763 28.9861 11.4746C29.2815 11.673 29.5118 11.9549 29.6478 12.2847C29.7837 12.6145 29.8193 12.9774 29.75 13.3275C29.6807 13.6777 29.5096 13.9993 29.2583 14.2517C29.0071 14.5042 28.687 14.6761 28.3385 14.7457C27.99 14.8154 27.6287 14.7796 27.3005 14.643C26.9722 14.5064 26.6916 14.275 26.4942 13.9782C26.2968 13.6814 26.1914 13.3324 26.1914 12.9754C26.1922 12.4969 26.3817 12.0383 26.7185 11.7C27.0552 11.3616 27.5117 11.1712 27.988 11.1704Z"
        fill="#E50019" />
</svg>
