<svg width="132" height="132" viewBox="0 0 132 132" fill="none" xmlns="http://www.w3.org/2000/svg">
    <g clip-path="url(#clip0_55811_73349)">
        <path fill-rule="evenodd" clip-rule="evenodd"
            d="M53.5475 6.25421C28.4958 6.14993 -9.48425 33.118 9.67612 59.4656C19.9785 73.6325 -4.32213 99.1617 15.4047 116.046C31.3583 129.7 57.5247 107.56 75.5664 117.348C122.408 142.759 138.157 78.7058 122.777 65.8373C115.24 59.5312 115.567 57.5752 116.115 50.0887C117.41 32.4012 99.825 36.0236 91.5227 35.777C77.0179 35.346 92.842 6.41767 53.5475 6.25412V6.25421Z"
            fill="#EADDFF" />
        <path fill-rule="evenodd" clip-rule="evenodd"
            d="M101.28 55.1309C109.005 51.8226 120.354 60.9263 105.221 68.9736C94.2969 74.7831 79.4004 82.4226 79.4004 82.4226C69.2762 87.0116 67.4969 70.6307 80.0295 64.0893L101.28 55.1309ZM29.9139 85.8767C21.8053 87.9057 11.8873 77.0837 27.994 71.5605C39.6218 67.5731 53.9335 64.9668 53.9335 64.9668C64.5961 62.0573 65.5199 75.9833 52.198 80.4358L29.9139 85.8767Z"
            fill="#FBA800" />
        <path fill-rule="evenodd" clip-rule="evenodd"
            d="M55.9465 64.4582C54.5849 64.5894 48.4365 67.7667 48.205 68.9456C46.2335 78.9879 45.7075 108.203 45.7075 108.203L83.5682 108.168L84.3701 63.3281C84.3701 63.3281 74.7548 64.3953 72.6074 64.2436C67.1653 63.8592 61.0904 63.9624 55.9465 64.458V64.4582Z"
            fill="#FBA800" />
        <path fill-rule="evenodd" clip-rule="evenodd"
            d="M46.2004 97.5888L47.5141 75.577C47.5219 75.4484 47.4299 75.3457 47.3085 75.3477C47.1871 75.3496 47.0823 75.4555 47.0744 75.5841L45.7608 97.596C45.753 97.7246 45.845 97.8273 45.9664 97.8253C46.0878 97.8234 46.1926 97.7175 46.2004 97.5888Z"
            fill="#FC8B10" />
        <path fill-rule="evenodd" clip-rule="evenodd"
            d="M68.5436 48.362C68.7479 46.4958 68.7382 41.6314 64.4497 39.8954C61.6532 38.7634 58.4546 39.5928 57.289 41.5337C55.9993 43.6812 54.8101 50.1606 54.3911 53.9043C54.0639 56.8288 56.5267 58.5251 58.7429 57.8293C58.6873 60.3164 58.5896 63.2509 58.5783 65.2978C58.541 72.0557 70.7641 71.9216 70.2355 65.0908C70.1496 63.9807 68.4325 54.6328 68.4325 54.6328L68.86 53.1499C71.0536 53.3 72.141 50.6002 71.5858 49.4407C71.1254 48.479 70.0067 47.845 68.5436 48.362Z"
            fill="#FDB196" />
        <path fill-rule="evenodd" clip-rule="evenodd"
            d="M61.4051 56.9618L58.7392 57.8307L58.6592 61.3845L61.4051 56.9618ZM57.9634 50.9862L59.1508 47.9656C59.1829 47.8838 59.1455 47.7904 59.0661 47.7574C58.9882 47.725 58.9 47.7647 58.8686 47.8448L57.5573 51.1809C57.553 51.1918 57.5512 51.2036 57.5521 51.2153C57.553 51.2271 57.5566 51.2384 57.5625 51.2486C57.5745 51.269 57.595 51.2819 57.6176 51.2833L59.406 51.3948C59.4905 51.4001 59.5622 51.3327 59.5673 51.2458C59.5725 51.1586 59.509 51.0825 59.4242 51.0772L57.9634 50.9862Z"
            fill="#F38069" />
        <path fill-rule="evenodd" clip-rule="evenodd"
            d="M61.3184 46.34C61.473 46.849 61.7006 47.1631 61.968 47.341C62.2315 47.5164 62.5274 47.5584 62.8059 47.5465C62.9554 47.5401 63.0847 47.6656 63.0947 47.8268C63.1047 47.9881 62.9916 48.1239 62.8421 48.1302C62.459 48.1465 62.0543 48.0769 61.6919 47.8357C61.3336 47.5972 61.0103 47.1899 60.8031 46.5077C60.7562 46.3532 60.8335 46.1904 60.9758 46.144C61.1181 46.0977 61.2715 46.1854 61.3184 46.34ZM58.1605 46.0307C57.4387 47.1454 56.4987 46.9204 56.1085 46.8301C55.9609 46.7959 55.8711 46.6424 55.9079 46.4871C55.9446 46.3319 56.094 46.2336 56.2415 46.2678C56.5192 46.3321 57.1938 46.51 57.7073 45.717C57.7936 45.5837 57.9651 45.5458 58.0902 45.6324C58.2154 45.7191 58.2469 45.8974 58.1605 46.0307Z"
            fill="black" />
        <path fill-rule="evenodd" clip-rule="evenodd"
            d="M69.3532 50.6963C69.5586 50.6935 69.6927 50.7193 69.789 50.7713C69.8812 50.821 69.9344 50.8947 69.9893 50.9757C70.0371 51.0463 70.1314 51.0642 70.2001 51.015C70.2707 50.9645 70.2875 50.8646 70.2384 50.792C70.1552 50.6693 70.0688 50.564 69.9291 50.4887C69.8592 50.451 69.7749 50.4205 69.6684 50.4012C69.8242 50.3272 70.0165 50.3079 70.2483 50.3426C70.3319 50.3551 70.4087 50.2943 70.4209 50.2083C70.4331 50.1217 70.3759 50.0403 70.2916 50.0276C69.9069 49.97 69.6073 50.0402 69.3792 50.2091C69.1531 50.3767 68.9942 50.6455 68.9015 51.0061C68.8797 51.091 68.9277 51.1788 69.0103 51.2012C69.0918 51.2234 69.1746 51.1722 69.1961 51.0885C69.2349 50.9377 69.2863 50.806 69.3532 50.6963Z"
            fill="#F38069" />
        <path fill-rule="evenodd" clip-rule="evenodd"
            d="M70.2389 48.3352C72.0793 44.5953 70.6094 39.8542 68.5302 40.3976C67.119 31.4167 56.6014 37.7977 53.7908 37.2875C52.9467 37.1343 53.9844 40.2225 53.9844 40.2225C53.5779 40.2178 53.4425 40.0307 52.9773 39.8574C53.0667 41.1537 54.9226 44.6985 56.0043 45.3077C55.9977 45.2007 56.6131 42.4179 56.9609 42.4641C57.6611 42.5572 58.1873 43.7418 59.5329 43.9589C60.6198 44.1343 64.4271 41.8149 65.7947 45.7171C66.5617 47.9056 66.2821 49.7852 67.6473 49.7465C68.0076 48.9984 68.8807 48.0939 70.2389 48.3352Z"
            fill="#8C0919" />
        <path fill-rule="evenodd" clip-rule="evenodd"
            d="M66.492 45.7617C66.2005 50.2325 64.6789 52.9574 61.9344 53.9465C59.4521 51.5983 57.0567 51.2899 54.678 51.3728C53.6744 55.4066 54.1854 57.6935 56.9781 58.2047C58.764 58.5316 63.3283 59.5728 66.2028 56.1569C67.2582 54.9028 66.8352 51.6264 67.7467 49.5202L66.492 45.7617Z"
            fill="#8C0919" />
        <path fill-rule="evenodd" clip-rule="evenodd"
            d="M56.6246 53.3492C56.5526 53.3681 56.5088 53.4452 56.5265 53.5215C56.5443 53.5978 56.617 53.6444 56.6889 53.6255C56.9523 53.5565 57.1814 53.5575 57.3695 53.6528C57.5553 53.7469 57.6965 53.9326 57.7958 54.2156C57.8216 54.2892 57.8988 54.3267 57.9683 54.2993C58.0377 54.2719 58.073 54.19 58.0472 54.1163C57.9186 53.7497 57.7258 53.5179 57.4852 53.396C57.2471 53.2754 56.9578 53.2619 56.6246 53.3492ZM56.6351 53.3845L56.6289 53.3484C56.6298 53.3494 56.6431 53.3642 56.6513 53.3804L56.6351 53.3845ZM56.6309 53.3858C56.6298 53.3734 56.6291 53.361 56.6289 53.3486L56.635 53.3846L56.6329 53.3851L56.6309 53.3858Z"
            fill="#F38069" />
        <path fill-rule="evenodd" clip-rule="evenodd"
            d="M60.2967 48.7475L60.2937 48.7442C60.2445 48.6855 60.2494 48.5956 60.3048 48.5433C60.3602 48.4911 60.445 48.4964 60.4942 48.5552C60.6744 48.7703 60.8638 48.907 61.0698 48.9415C61.2731 48.9755 61.4885 48.9073 61.7215 48.7336C61.782 48.6884 61.8657 48.7039 61.9083 48.7683C61.951 48.8325 61.9364 48.9213 61.8757 48.9665C61.574 49.1914 61.2913 49.2666 61.028 49.2226C60.7674 49.179 60.5217 49.0164 60.2937 48.7443L60.2967 48.7475ZM60.3212 48.7214L60.2968 48.7475C60.2981 48.7472 60.317 48.743 60.3324 48.7346L60.3212 48.7214ZM60.3184 48.7179C60.3078 48.7312 60.2982 48.7454 60.2969 48.7473L60.3212 48.7214L60.3197 48.7197L60.3184 48.7179ZM56.3231 47.8462C56.2739 47.7875 56.2788 47.6975 56.3342 47.6453C56.3896 47.5931 56.4744 47.5984 56.5236 47.6571C56.7038 47.8722 56.8932 48.009 57.0992 48.0434C57.3024 48.0774 57.5179 48.0092 57.7509 47.8356C57.8114 47.7904 57.8951 47.8059 57.9378 47.8702C57.9804 47.9345 57.9657 48.0233 57.9051 48.0685C57.6034 48.2934 57.3207 48.3686 57.0574 48.3246C56.7968 48.2811 56.5511 48.1184 56.3231 47.8462ZM56.3506 47.8234L56.3262 47.8495C56.3275 47.8492 56.3464 47.845 56.3618 47.8366L56.3506 47.8234ZM56.3478 47.8199C56.3403 47.8294 56.3331 47.8392 56.3263 47.8493L56.3506 47.8234L56.3491 47.8216L56.3478 47.8199Z"
            fill="black" />
        <path fill-rule="evenodd" clip-rule="evenodd"
            d="M55.9716 38.8696C56.0058 38.8789 56.035 38.9013 56.0528 38.932C56.1973 39.1755 58.0976 40.0608 58.8856 40.1903C58.9588 40.2023 59.0325 40.1861 59.0646 40.257C59.0967 40.3278 59.0758 40.4489 59.0018 40.4469C58.2967 40.4279 56.8232 39.7734 56.1553 39.3505C56.287 39.6956 56.5531 40.1533 57.0169 40.4749C57.0789 40.5179 57.1524 40.5354 57.154 40.614C57.1542 40.6252 57.1531 40.637 57.1508 40.6487C57.1489 40.7025 57.1258 40.7535 57.0814 40.7578C57.0632 40.7678 57.0431 40.7698 57.0229 40.7595L57.0153 40.7556C56.1503 40.7057 55.3655 40.0741 55.1867 39.7727C55.1472 39.7063 55.166 39.6184 55.2287 39.5765C55.2914 39.5346 55.3742 39.5546 55.4137 39.6211C55.5303 39.8175 55.9505 40.1857 56.5222 40.3886C56.0585 39.924 55.8242 39.2962 55.7886 39.0211L55.7895 39.0256L55.7886 39.0211C55.7785 38.9432 55.8298 38.8714 55.9032 38.8607C55.9264 38.8573 55.9501 38.8604 55.9716 38.8696ZM55.2173 39.755L55.1893 39.7764C55.2018 39.7758 55.2143 39.7736 55.2263 39.7699L55.2173 39.755ZM55.2151 39.7511C55.2027 39.7623 55.1909 39.7746 55.1894 39.7763L55.2173 39.755L55.2151 39.7511ZM55.8057 39.0221C55.806 39.0254 55.8065 39.0286 55.807 39.0318C55.7975 39.029 55.7902 39.0259 55.7895 39.0256L55.8057 39.0221ZM55.8057 39.0221L55.8055 39.0196C55.7972 39.0225 55.791 39.025 55.7897 39.0255L55.8057 39.0221Z"
            fill="#C0424E" />
        <path fill-rule="evenodd" clip-rule="evenodd"
            d="M72.6343 64.2311L69.8363 61.7188L61.3053 69.2868L58.4135 62.9059L55.8409 64.449L58.0154 73.3199L61.0936 69.9327L64.1878 73.9888L72.6343 64.2311Z"
            fill="white" />
        <path fill-rule="evenodd" clip-rule="evenodd"
            d="M85.7881 45.5014L81.16 53.9271C81.16 53.9271 76.2093 49.7316 73.6613 48.478C71.0958 47.2157 68.1337 46.4815 68.3129 44.3641C68.414 43.1683 68.668 40.2664 69.3935 39.159C70.8293 36.9673 67.4683 30.5523 68.3467 30.0517C69.2032 29.5636 70.4384 31.029 71.3774 33.2419C69.948 29.3411 70.5233 25.516 73.3662 32.091C72.7063 28.8878 73.5121 26.5149 75.531 32.5442C75.0132 26.6489 77.0681 31.0478 77.9303 35.0012C78.5527 37.8551 77.8132 40.8879 77.8132 40.8879C77.4885 43.5207 83.7268 44.7736 85.7881 45.5014Z"
            fill="#FFB3A4" />
        <path fill-rule="evenodd" clip-rule="evenodd"
            d="M71.9782 35.7984C71.8435 34.8848 71.5678 33.9457 71.1418 33.0308C71.0992 32.9392 71.1347 32.8283 71.221 32.783C71.3074 32.7378 71.412 32.7754 71.4546 32.867C71.8969 33.8171 72.1829 34.7924 72.3229 35.7412C72.3378 35.8421 72.2727 35.9368 72.1775 35.9526C72.0823 35.9684 71.9931 35.8993 71.9782 35.7984ZM74.1655 35.2609C74.0581 34.2806 73.4848 32.6383 73.2549 32.1192C73.214 32.0267 73.2515 31.9165 73.3386 31.8731C73.4258 31.8296 73.5297 31.8694 73.5707 31.9619C73.8089 32.4997 74.4007 34.2024 74.512 35.2182C74.5231 35.3197 74.4545 35.4116 74.3588 35.4234C74.2631 35.4351 74.1766 35.3624 74.1655 35.2609ZM76.0025 34.8931C75.9671 34.4103 75.8064 33.3993 75.4572 32.4477C75.4222 32.3525 75.4667 32.2453 75.5564 32.2082C75.6462 32.1711 75.7473 32.2182 75.7822 32.3135C76.1465 33.3061 76.3134 34.3608 76.3502 34.8645C76.3577 34.9664 76.2859 35.0554 76.1899 35.0633C76.0938 35.0712 76.0099 34.995 76.0025 34.8931Z"
            fill="#FFB3A4" />
        <path fill-rule="evenodd" clip-rule="evenodd"
            d="M77.7216 42.8966C78.0873 42.4253 78.7485 42.3606 79.1972 42.7523L80.823 44.1718C81.2717 44.5635 81.3391 45.2642 80.9734 45.7356L77.0045 50.851C76.6388 51.3224 75.9776 51.387 75.5289 50.9953L73.9031 49.5758C73.4544 49.1841 73.387 48.4834 73.7528 48.012L77.7216 42.8966Z"
            fill="#8C0919" />
        <path fill-rule="evenodd" clip-rule="evenodd"
            d="M81.8567 41.0795C80.5241 39.916 78.7791 39.8261 77.9623 40.8789C77.1455 41.9316 77.5643 43.7308 78.897 44.8943C80.2296 46.0578 81.9746 46.1477 82.7914 45.095C83.6082 44.0422 83.1893 42.243 81.8567 41.0795Z"
            fill="#8C0919" />
        <path fill-rule="evenodd" clip-rule="evenodd"
            d="M81.7445 41.2233C80.5535 40.1834 79.0712 40.0033 78.4365 40.8214C77.8018 41.6395 78.2534 43.1478 79.4445 44.1877C80.6355 45.2275 82.1178 45.4076 82.7525 44.5896C83.3872 43.7715 82.9355 42.2631 81.7445 41.2233Z"
            fill="white" />
        <path fill-rule="evenodd" clip-rule="evenodd"
            d="M80.634 43.3892L80.461 42.2751C80.4578 42.2553 80.4593 42.2351 80.4655 42.216C80.4716 42.197 80.4821 42.1797 80.4962 42.1655C80.5098 42.1519 80.5266 42.142 80.5451 42.1369C80.5636 42.1317 80.5832 42.1315 80.6018 42.1361L82.2642 42.5607C82.3261 42.5766 82.3643 42.6427 82.3493 42.7084C82.3344 42.7741 82.2721 42.8146 82.2101 42.7987L80.7169 42.4174L80.8617 43.3494C80.872 43.4161 80.8295 43.4791 80.7666 43.4901C80.7037 43.5011 80.6443 43.4559 80.634 43.3892Z"
            fill="black" />
        <path fill-rule="evenodd" clip-rule="evenodd"
            d="M84.7523 43.8047C84.7523 43.8047 76.6881 54.2252 78.0177 54.9197C83.925 58.0051 92.7688 62.0661 100.537 65.697C113.502 71.7577 116.354 56.6364 107.428 52.7157L84.7523 43.8047Z"
            fill="#FBA800" />
        <path fill-rule="evenodd" clip-rule="evenodd"
            d="M84.7523 43.8047C84.7523 43.8047 76.6881 54.2252 78.0177 54.9197C79.2625 55.5699 82.1059 56.9871 82.1059 56.9871C81.883 55.5359 86.6064 47.6583 89.9426 45.8444L84.7523 43.8047Z"
            fill="white" />
        <path fill-rule="evenodd" clip-rule="evenodd"
            d="M86.1314 45.3855C85.8542 45.2405 85.5183 45.3615 85.3816 45.6555C85.245 45.9495 85.359 46.3058 85.6361 46.4508C85.9133 46.5957 86.2492 46.4747 86.3859 46.1808C86.5225 45.8868 86.4085 45.5305 86.1314 45.3855Z"
            fill="#DAE6F8" />
        <path fill-rule="evenodd" clip-rule="evenodd"
            d="M45.764 32.0322C45.5659 29.5648 45.5955 28.1633 44.3863 27.2057C42.6778 25.8527 44.2139 30.4872 42.7407 33.9547C41.0075 38.0342 40.3387 38.219 39.897 40.421C39.6192 41.8063 39.8924 45.4392 39.8924 45.4392L34.9344 51.9859L41.9348 56.9709L47.2636 47.6638C48.0785 46.4495 49.4656 45.4953 50.1825 44.4438C52.0426 41.7151 54.3441 39.29 53.3121 39.0584C50.5459 38.4378 49.2954 43.1268 47.7691 41.4037C47.2286 40.7936 46.7847 38.6057 46.4535 37.0435C47.1402 36.3903 47.6244 35.9717 47.5353 35.6336C47.4764 35.4102 47.0002 35.2641 46.3165 35.3242C47.2187 34.422 47.9354 33.901 47.8286 33.496C47.7635 33.2491 47.1892 33.0967 46.3884 33.2123C46.9395 32.6226 47.2445 32.3586 47.186 32.0814C47.0971 31.6599 46.5328 31.6502 45.764 32.0322Z"
            fill="#FDB196" />
        <path fill-rule="evenodd" clip-rule="evenodd"
            d="M48.0428 42.0549C45.2843 42.0048 44.0096 42.5923 43.2795 43.4386C43.212 43.5167 43.0976 43.5221 43.0239 43.4505C42.9502 43.379 42.9451 43.2576 43.0126 43.1795C43.7863 42.2827 45.126 41.6181 48.049 41.6711C48.1489 41.673 48.2284 41.7603 48.2267 41.8663C48.225 41.9722 48.1427 42.0567 48.0428 42.0549ZM46.3558 35.517C43.7738 36.5479 41.7601 38.0449 41.3748 39.1169C41.3393 39.2159 41.2347 39.2656 41.1414 39.2279C41.048 39.1901 41.0012 39.0792 41.0368 38.9802C41.445 37.8443 43.4923 36.2502 46.2284 35.1579C46.3219 35.1205 46.4262 35.1707 46.4614 35.2699C46.4966 35.3691 46.4493 35.4797 46.3558 35.517ZM42.5298 35.054C43.1775 34.4802 44.8848 33.5916 46.2766 33.0359C46.3701 32.9986 46.4744 33.0487 46.5096 33.1479C46.5448 33.2471 46.4976 33.3577 46.4041 33.3951C43.822 34.4259 42.0799 35.7904 41.6948 36.8623C41.6592 36.9614 41.5547 37.011 41.4613 36.9733C41.368 36.9355 41.3212 36.8247 41.3567 36.7257C41.5062 36.3097 41.737 35.893 42.1039 35.4783C42.0921 35.4372 42.0902 35.3899 42.094 35.3423C42.1963 34.0693 42.9278 33.0344 45.6638 31.942C45.7573 31.9047 45.8616 31.9549 45.8968 32.0541C45.932 32.1532 45.8847 32.2639 45.7912 32.3012C43.542 33.1992 42.86 34.0998 42.5298 35.054Z"
            fill="#F38069" />
        <path fill-rule="evenodd" clip-rule="evenodd"
            d="M43.8551 39.8735C44.5989 39.7686 46.0183 40.1241 47.1168 41.569C47.1795 41.6514 47.0829 41.7761 46.9861 41.8022C46.8893 41.8284 46.8398 41.7353 46.7662 41.6637C45.3959 40.3313 44.357 40.3385 43.6451 40.3321C43.5105 40.682 43.4419 41.013 43.4185 41.3322C43.4107 41.4379 43.3237 41.5169 43.2241 41.5086C43.1245 41.5004 43.0501 41.4081 43.0578 41.3024C43.1468 40.0905 43.8164 38.6916 46.1501 36.8239C46.2299 36.7601 46.3433 36.7769 46.4035 36.8615C46.4636 36.9461 46.4477 37.0664 46.368 37.1302C45.0428 38.1908 44.2749 39.0823 43.8551 39.8735Z"
            fill="#F38069" />
        <path fill-rule="evenodd" clip-rule="evenodd"
            d="M37.9598 44.5352C36.6031 46.6825 27.7012 59.9661 21.1698 72.309C14.4535 85.0013 27.928 89.3271 32.323 80.5661L47.7874 51.584L37.9598 44.5352Z"
            fill="#FBA800" />
        <path fill-rule="evenodd" clip-rule="evenodd"
            d="M46.0078 55.5094L35.5801 48.0147L37.8553 44.4922L47.9936 51.7353L46.0078 55.5094Z"
            fill="white" />
        <path fill-rule="evenodd" clip-rule="evenodd"
            d="M45.3815 51.7529C45.1367 51.5704 44.7983 51.6332 44.6263 51.8929C44.4543 52.1527 44.5135 52.5117 44.7583 52.6941C45.0032 52.8766 45.3416 52.8138 45.5136 52.5541C45.6856 52.2943 45.6264 51.9353 45.3815 51.7529Z"
            fill="#DAE6F8" />
        <path fill-rule="evenodd" clip-rule="evenodd"
            d="M35.9829 73.6958L41.8124 62.7748C41.8728 62.6633 41.8366 62.5209 41.7315 62.4568C41.6263 62.3927 41.4921 62.4311 41.4317 62.5427L35.6021 73.4636C35.5417 73.5751 35.5779 73.7174 35.683 73.7816C35.7882 73.8457 35.9224 73.8073 35.9829 73.6958Z"
            fill="#FC8B10" />
        <path fill-rule="evenodd" clip-rule="evenodd"
            d="M62.8606 22.7734C62.5585 21.5666 61.8523 20.6465 60.9295 19.9934C59.5187 18.995 57.5935 18.6292 55.9322 18.7927C54.7984 18.9043 53.7884 19.2651 53.133 19.8155C52.6297 20.2381 52.3235 20.7746 52.2673 21.3911C52.1965 22.1679 52.6922 22.858 53.6832 23.3086C55.4696 24.1206 58.9569 24.289 62.2714 23.7572C62.3766 25.0802 61.8364 26.0445 61.0302 26.7248C60.7949 26.9233 60.5381 27.0989 60.2678 27.2531C59.5597 27.031 58.7478 26.8433 57.9291 26.7043C56.2816 26.4247 54.6087 26.3391 53.7152 26.5264C53.43 26.5862 53.2117 26.6787 53.0714 26.7865C52.8998 26.9183 52.8104 27.0848 52.78 27.2584C52.7071 27.6744 52.9069 28.1199 53.4259 28.4407C54.2333 28.9398 55.9277 29.2278 57.6473 28.9956C58.5031 28.8799 59.4655 28.6173 60.333 28.1729C60.698 28.2967 61.0255 28.4308 61.2982 28.5735C61.5358 28.6979 61.728 28.8246 61.8545 28.9614C61.8803 28.9894 61.9028 29.0172 61.9206 29.0458C61.9307 29.062 61.9459 29.073 61.9441 29.0899C61.9039 29.4692 61.6383 29.648 61.298 29.7671C60.578 30.0192 59.5371 29.9665 58.644 29.9812C57.9673 29.9924 57.3664 30.0477 56.9958 30.2364C56.6125 30.4315 56.4122 30.7486 56.4208 31.2028C56.4304 31.7034 56.745 32.0034 57.2299 32.2141C57.4383 32.3046 57.6803 32.3879 57.9008 32.5217C58.0687 32.6237 58.2257 32.7563 58.3207 32.9732C58.4675 33.3084 58.4671 33.803 58.2663 34.5719C58.2063 34.8015 58.3158 35.045 58.511 35.1156C58.7062 35.1862 58.9131 35.0573 58.973 34.8276C59.278 33.6602 59.172 32.9377 58.9244 32.4628C58.6684 31.9715 58.2395 31.7178 57.8188 31.537C57.6434 31.4618 57.4721 31.3993 57.3295 31.3239C57.284 31.2998 57.242 31.2748 57.2062 31.2457C57.1846 31.2283 57.1607 31.215 57.1601 31.1832C57.159 31.1238 57.1959 31.0919 57.2406 31.0629C57.2931 31.0289 57.3558 31.0027 57.4262 30.98C57.7401 30.8792 58.1755 30.8592 58.6544 30.8513C59.6154 30.8354 60.7342 30.8724 61.5088 30.6012C62.1655 30.3713 62.6002 29.9297 62.6779 29.1976C62.7191 28.8093 62.5117 28.3791 62.0158 28.0297C61.8083 27.8835 61.5445 27.7427 61.2386 27.6095C61.3144 27.5523 61.3886 27.4931 61.4611 27.4319C62.4884 26.565 63.1641 25.3273 63.005 23.6273C65.4094 23.1607 67.6433 22.3139 68.9846 21.1016C69.7407 20.4181 70.2231 19.6141 70.3487 18.7088C70.4738 17.8079 70.2507 16.7883 69.5306 15.6635C68.2779 13.7067 65.5993 12.5242 62.4324 11.9594C57.8053 11.1342 52.1387 11.5814 48.6074 12.5396C48.4084 12.5936 48.2843 12.8272 48.3302 13.0614C48.3761 13.2955 48.5746 13.4416 48.7735 13.3876C52.2341 12.4485 57.7872 12.0111 62.3216 12.8198C65.2625 13.3442 67.7768 14.37 68.94 16.1871C69.5063 17.0717 69.7174 17.86 69.619 18.5685C69.5212 19.2728 69.1225 19.8797 68.5341 20.4115C67.264 21.5596 65.1387 22.3349 62.8606 22.7734ZM59.0092 27.8023C58.6242 27.713 58.2246 27.6336 57.8236 27.5656C56.2678 27.3016 54.6886 27.2062 53.8448 27.3831C53.7375 27.4056 53.6189 27.4533 53.5438 27.4865C53.5877 27.5401 53.6475 27.5891 53.7186 27.6373C54.1161 27.9065 54.804 28.094 55.6141 28.1714C56.2182 28.2292 56.8886 28.2222 57.563 28.1311C58.0233 28.0689 58.5182 27.9621 59.0092 27.8023ZM62.1203 22.9034C61.8551 21.9671 61.2791 21.2562 60.5484 20.7391C59.2633 19.8297 57.5071 19.511 55.9938 19.6599C55.0114 19.7565 54.1304 20.047 53.5624 20.5238C53.2501 20.7861 53.0374 21.1013 53.0025 21.484C52.9861 21.6639 53.0539 21.8202 53.1728 21.9625C53.3466 22.1707 53.6139 22.3442 53.9497 22.4968C55.6507 23.2701 58.9625 23.4048 62.1203 22.9034Z"
            fill="#21005D" />
        <path fill-rule="evenodd" clip-rule="evenodd"
            d="M10.1637 107.324H119.497V108.204H10.1637V107.324Z" fill="#9A82DB" />
        <path fill-rule="evenodd" clip-rule="evenodd"
            d="M121.225 73.2629C119.129 72.6694 115.27 74.0914 113.119 76.6618C110.847 79.3759 109.71 85.7926 111.806 86.386C113.902 86.9795 117.746 80.9867 120.172 78.5261C122.548 76.1162 123.321 73.8563 121.225 73.2629ZM100.819 74.4091C102.916 73.8178 106.027 75.5343 107.761 78.2398C109.495 80.9454 110.503 87.0457 109.241 87.4647C107.814 87.9381 101.895 83.0881 100.16 80.3826C98.4262 77.677 98.7211 75.0004 100.819 74.4091ZM95.7339 86.9192C96.3232 85.7572 98.8761 85.2766 101.431 85.8466C103.986 86.4165 107.448 89.078 106.859 90.24C106.269 91.402 101.85 90.6272 99.2953 90.0572C96.7403 89.4872 95.1445 88.0811 95.7339 86.9192Z"
            fill="#D0BCFF" />
        <path fill-rule="evenodd" clip-rule="evenodd"
            d="M123.103 83.6396C122.293 82.5378 120.375 82.4522 117.937 83.2144C114.683 84.2315 111.699 87.9778 113.075 88.7967C113.971 89.3298 115.432 87.0228 120.427 86.4022C123.076 86.073 123.914 84.7414 123.103 83.6396ZM98.9728 93.3702C99.3299 94.0816 101.324 94.2827 103.424 93.819C105.524 93.3555 108.941 93.1622 108.659 92.436C108.124 91.0531 104.23 90.7778 102.13 91.2414C100.03 91.705 98.6156 92.6589 98.9728 93.3702Z"
            fill="#D0BCFF" />
        <path fill-rule="evenodd" clip-rule="evenodd"
            d="M121.693 88.2567C122.115 89.0275 120.716 90.0725 118.57 90.5891C116.425 91.1058 113.149 92.2746 112.727 91.5039C112.305 90.7331 114.896 88.3128 117.041 87.7963C119.187 87.2797 121.271 87.486 121.693 88.2567Z"
            fill="#D0BCFF" />
        <path fill-rule="evenodd" clip-rule="evenodd"
            d="M110.757 90.6286C111.46 86.4484 113.475 79.973 115.963 78.1221C116.041 78.0647 116.192 78.1385 116.228 78.2116C116.264 78.2848 116.16 78.3243 116.093 78.387C113.427 80.8683 111.545 87.5185 111.032 91.4512C111.084 91.8738 111.114 92.2837 111.121 92.6744C112.293 88.2425 115.078 85.6472 119.418 84.42C119.525 84.3898 119.647 84.4364 119.683 84.5095C119.718 84.5827 119.654 84.655 119.548 84.6849C115.748 85.7482 112.39 88.5286 111.49 92.7938C112.942 90.6988 116.031 89.1795 119.721 88.3869C119.831 88.3633 119.95 88.4033 119.985 88.4765C120.021 88.5496 119.961 88.6282 119.85 88.6519C115.167 89.6578 111.463 91.8615 111.055 94.9619L111.055 94.9654L111.054 94.9688L111.053 94.9722L111.052 94.9756L111.051 94.979L111.05 94.9823L111.049 94.9856L111.048 94.9887L111.046 94.9919L111.044 94.9951L111.043 94.9982L111.041 95.0014L111.039 95.0044L111.037 95.0074L111.035 95.0104L111.033 95.0134L111.033 95.0135C111.031 95.0153 111.03 95.0171 111.028 95.0189L111.028 95.0194L111.026 95.0219L111.023 95.0247L111.023 95.025L111.02 95.0274L111.017 95.0301L111.017 95.0304L111.015 95.0327L111.012 95.0353L111.011 95.0356L111.009 95.0378L111.005 95.0403L111.005 95.0407L111.002 95.0428L110.999 95.0451L110.998 95.0455L110.996 95.0475L110.992 95.0498L110.992 95.0501L110.988 95.052L110.985 95.0542L110.984 95.0545L110.981 95.0562L110.977 95.0583L110.977 95.0587L110.974 95.0603L110.97 95.0623L110.969 95.0626L110.966 95.0641L110.962 95.0659L110.961 95.0663L110.958 95.0677L110.953 95.0694L110.953 95.0697L110.949 95.071L110.945 95.0726L110.944 95.0728L110.944 95.073L110.941 95.074L110.936 95.0755L110.936 95.0757L110.935 95.0759L110.932 95.0769L110.927 95.0782L110.927 95.0784L110.926 95.0785L110.923 95.0794L110.918 95.0806L110.917 95.0807C110.915 95.0814 110.912 95.0819 110.91 95.0825L110.909 95.0827L110.907 95.0829L110.906 95.0832L110.904 95.0836L110.903 95.0839L110.902 95.0841L110.899 95.0845L110.898 95.0847L110.897 95.0849L110.894 95.0853L110.893 95.0855L110.892 95.0857L110.89 95.086L110.888 95.0862L110.887 95.0864L110.885 95.0867L110.883 95.0869L110.882 95.087L110.88 95.0872L110.878 95.0874L110.877 95.0875L110.875 95.0877L110.873 95.0879L110.872 95.0879L110.87 95.0882L110.868 95.0883L110.867 95.0883L110.865 95.0885L110.863 95.0886L110.862 95.0886L110.86 95.0887L110.858 95.0888H110.857L110.854 95.0889L110.853 95.089H110.852L110.849 95.089H110.842L110.839 95.089C110.836 95.089 110.833 95.0891 110.83 95.089C110.827 95.0891 110.824 95.089 110.821 95.089L110.818 95.089H110.81L110.808 95.089L110.805 95.0889L110.803 95.0888L110.8 95.0887L110.798 95.0886L110.795 95.0885L110.793 95.0883L110.79 95.0882L110.788 95.0879L110.785 95.0877L110.783 95.0875L110.78 95.0872L110.778 95.087L110.775 95.0867L110.773 95.0864L110.77 95.086L110.768 95.0857L110.765 95.0853L110.763 95.0849L110.76 95.0845L110.758 95.0841L110.757 95.0839L110.756 95.0836L110.753 95.0832L110.751 95.0827L110.75 95.0825C110.747 95.082 110.745 95.0814 110.742 95.0807L110.742 95.0806L110.737 95.0794L110.734 95.0785L110.733 95.0784L110.732 95.0782L110.728 95.0769L110.725 95.0759L110.724 95.0757L110.723 95.0755L110.719 95.074L110.716 95.073L110.715 95.0726L110.71 95.071L110.707 95.0697L110.706 95.0694L110.702 95.0677L110.699 95.0663L110.698 95.0659L110.694 95.0641L110.691 95.0626L110.69 95.0623L110.686 95.0603L110.683 95.0587L110.682 95.0583L110.678 95.0562L110.675 95.0545L110.675 95.0542L110.671 95.052L110.668 95.0501L110.668 95.0498L110.664 95.0475L110.661 95.0455L110.661 95.0451L110.658 95.0428L110.655 95.0407L110.654 95.0403L110.651 95.0378L110.648 95.0356L110.648 95.0353L110.645 95.0327L110.643 95.0304L110.642 95.0301L110.639 95.0274L110.637 95.025L110.637 95.0247L110.634 95.0219L110.632 95.0194L110.631 95.0189C110.63 95.0171 110.628 95.0153 110.627 95.0135L110.627 95.0134L110.625 95.0106L110.625 95.0104L110.623 95.0076L110.621 95.0046L110.619 95.0015L110.617 94.9984L110.615 94.9953L110.614 94.9921L110.612 94.9889L110.611 94.9855L110.61 94.9822L110.608 94.9789L110.607 94.9755L110.607 94.9722L110.606 94.9688L110.605 94.9653L110.605 94.9619C110.197 91.8615 106.079 91.7777 101.337 92.778C101.227 92.8013 101.167 92.6758 101.202 92.6027C101.238 92.5295 101.356 92.5351 101.467 92.5131C104.42 91.9274 107.557 91.4756 109.651 92.7206C108.194 90.7916 105.269 89.3949 101.809 88.6519C101.699 88.6282 101.639 88.5496 101.674 88.4765C101.71 88.4033 101.828 88.3633 101.939 88.3869C105.996 89.2583 109.325 91.0081 110.554 93.4363L110.554 93.4363C110.528 93.0242 110.547 92.4949 110.607 91.8804C110.326 89.1416 106.625 82.1232 103.978 79.6601C103.911 79.5974 103.808 79.5578 103.843 79.4847C103.879 79.4115 104.03 79.3377 104.108 79.3951C106.388 81.091 110.192 87.9971 110.757 90.6286Z"
            fill="#7F67BE" />
        <path fill-rule="evenodd" clip-rule="evenodd"
            d="M116.017 94.1055H105.643V100.781C105.643 101.491 106.51 108.205 107.579 108.205H114.08C115.15 108.205 116.017 101.491 116.017 100.781V94.1055ZM28.3951 98.4069C28.832 98.0913 29.3575 97.9218 29.8965 97.9226C31.3152 97.9226 32.467 99.0744 32.467 100.493C32.467 101.912 31.3152 103.064 29.8965 103.064C29.3575 103.064 28.832 102.895 28.3951 102.579V106.985C26.881 108.562 20.3406 108.661 18.5018 106.985V94.4426H28.3951V98.4069ZM29.8965 99.2078C30.6058 99.2078 31.1817 99.7838 31.1817 100.493C31.1817 101.202 30.6058 101.778 29.8965 101.778C29.1871 101.778 28.6112 101.202 28.6112 100.493C28.6112 99.7838 29.1871 99.2078 29.8965 99.2078Z"
            fill="#6750A4" />
        <path
            d="M23.4539 95.446C26.1835 95.446 28.3963 95.0034 28.3963 94.4574C28.3963 93.9114 26.1835 93.4688 23.4539 93.4688C20.7244 93.4688 18.5116 93.9114 18.5116 94.4574C18.5116 95.0034 20.7244 95.446 23.4539 95.446Z"
            fill="#116CD2" />
        <path
            d="M23.454 95.2649C26.0213 95.2649 28.1025 94.9022 28.1025 94.4547C28.1025 94.0073 26.0213 93.6445 23.454 93.6445C20.8867 93.6445 18.8055 94.0073 18.8055 94.4547C18.8055 94.9022 20.8867 95.2649 23.454 95.2649Z"
            fill="#21005D" />
        <path fill-rule="evenodd" clip-rule="evenodd"
            d="M26.0271 87.2441C25.2219 89.0742 25.2104 90.0149 25.5613 90.9863C26.1216 92.5373 25.7675 94.4896 25.7675 94.4896C26.4675 92.8437 26.3846 91.6964 26.0707 90.6984C25.5504 89.044 26.0271 87.2441 26.0271 87.2441ZM21.3659 87.2441C20.5607 89.0742 20.5493 90.0149 20.9002 90.9863C21.4605 92.5373 21.1064 94.4896 21.1064 94.4896C21.8064 92.8437 21.7235 91.6964 21.4096 90.6984C20.8892 89.044 21.3659 87.2441 21.3659 87.2441ZM23.7566 85.1133C22.7146 87.4816 22.6997 88.6989 23.1539 89.956C23.8789 91.9632 23.4207 94.4896 23.4207 94.4896C24.3265 92.3597 24.2192 90.875 23.813 89.5835C23.1397 87.4426 23.7566 85.1133 23.7566 85.1133Z"
            fill="white" />
    </g>
    <defs>
        <clipPath id="clip0_55811_73349">
            <rect width="132" height="132" fill="white" />
        </clipPath>
    </defs>
</svg>
