<svg width="17" height="17" viewBox="0 0 17 17" fill="none" xmlns="http://www.w3.org/2000/svg">
    <path
        d="M5.43989 12.7498L8.49983 9.68981L11.5598 12.7498L12.7498 11.5598L9.68981 8.49983L12.7498 5.43989L11.5598 4.24992L8.49983 7.30986L5.43989 4.24992L4.24992 5.43989L7.30986 8.49983L4.24992 11.5598L5.43989 12.7498ZM8.49983 16.9997C7.32402 16.9997 6.21905 16.7765 5.1849 16.3303C4.15075 15.8841 3.25119 15.2785 2.4862 14.5135C1.72122 13.7485 1.1156 12.8489 0.669362 11.8148C0.223121 10.7806 0 9.67565 0 8.49983C0 7.32402 0.223121 6.21905 0.669362 5.1849C1.1156 4.15075 1.72122 3.25119 2.4862 2.4862C3.25119 1.72122 4.15075 1.1156 5.1849 0.669362C6.21905 0.223121 7.32402 0 8.49983 0C9.67565 0 10.7806 0.223121 11.8148 0.669362C12.8489 1.1156 13.7485 1.72122 14.5135 2.4862C15.2785 3.25119 15.8841 4.15075 16.3303 5.1849C16.7765 6.21905 16.9997 7.32402 16.9997 8.49983C16.9997 9.67565 16.7765 10.7806 16.3303 11.8148C15.8841 12.8489 15.2785 13.7485 14.5135 14.5135C13.7485 15.2785 12.8489 15.8841 11.8148 16.3303C10.7806 16.7765 9.67565 16.9997 8.49983 16.9997Z"
        fill="#938F96" />
</svg>
