<svg width="24" height="24" viewBox="0 0 24 24" fill="none" xmlns="http://www.w3.org/2000/svg">
    <g clip-path="url(#clip0_0_190)">
        <path
            d="M15.4785 2.6215C14.3952 2.21955 13.2235 1.99951 12.0003 1.99951C10.7771 1.99951 9.60536 2.21955 8.52204 2.6215L7.65247 11.9995L8.52204 21.3775C9.60536 21.7795 10.7771 21.9995 12.0003 21.9995C13.2235 21.9995 14.3952 21.7795 15.4785 21.3775L16.3481 11.9995L15.4785 2.6215Z"
            fill="#FFDA44" />
        <path
            d="M21.9997 12C21.9997 7.70043 19.2859 4.03496 15.4779 2.62207V21.3781C19.2859 19.9651 21.9997 16.2997 21.9997 12Z"
            fill="#D80027" />
        <path
            d="M2.00012 11.9995C2.00012 16.2992 4.71387 19.9646 8.52188 21.3776V2.62158C4.71387 4.03447 2.00012 7.69994 2.00012 11.9995Z"
            fill="#6DA544" />
    </g>
    <defs>
        <clipPath id="clip0_0_190">
            <rect width="20" height="20" fill="white" transform="translate(2 2)" />
        </clipPath>
    </defs>
</svg>
