<svg width="16" height="16" viewBox="0 0 16 16" fill="none" xmlns="http://www.w3.org/2000/svg">
    <path
        d="M8.00094 7.90958C8.33266 7.90958 8.61626 7.79147 8.85172 7.55525C9.08719 7.31903 9.20492 7.03505 9.20492 6.70333C9.20492 6.37161 9.08681 6.08802 8.85059 5.85255C8.61437 5.61708 8.3304 5.49935 7.99867 5.49935C7.66695 5.49935 7.38336 5.61746 7.14789 5.85368C6.91242 6.0899 6.79469 6.37388 6.79469 6.7056C6.79469 7.03732 6.9128 7.32092 7.14902 7.55638C7.38525 7.79185 7.66922 7.90958 8.00094 7.90958ZM7.99981 14.339C6.32204 12.8852 5.06392 11.5322 4.22546 10.2801C3.387 9.02797 2.96777 7.87839 2.96777 6.83138C2.96777 5.29294 3.46542 4.04743 4.46072 3.09487C5.45601 2.1423 6.63571 1.66602 7.99981 1.66602C9.36391 1.66602 10.5436 2.1423 11.5389 3.09487C12.5342 4.04743 13.0318 5.29294 13.0318 6.83138C13.0318 7.87839 12.6126 9.02797 11.7742 10.2801C10.9357 11.5322 9.67757 12.8852 7.99981 14.339Z"
        fill="#79767D" />
</svg>
