<svg width="25" height="25" viewBox="0 0 25 25" fill="none" xmlns="http://www.w3.org/2000/svg">
    <path
        d="M20.625 23.5416L17.474 20.3905C17.0399 20.6683 16.5799 20.907 16.0938 21.1067C15.6076 21.3063 15.1042 21.4669 14.5833 21.5884V19.453C14.8264 19.3662 15.0651 19.2794 15.2995 19.1926C15.5339 19.1058 15.7552 19.0016 15.9635 18.8801L12.5 15.4166V20.8332L7.29167 15.6249H3.12501V9.37489H6.45834L1.45834 4.37489L2.91667 2.91656L22.0833 22.0832L20.625 23.5416ZM20.4167 17.4999L18.9063 15.9895C19.2014 15.4513 19.4228 14.887 19.5703 14.2968C19.7179 13.7065 19.7917 13.0988 19.7917 12.4738C19.7917 10.8419 19.3142 9.38357 18.3594 8.09885C17.4045 6.81413 16.1458 5.94607 14.5833 5.49468V3.35927C16.7361 3.84538 18.4896 4.93479 19.8438 6.6275C21.1979 8.3202 21.875 10.269 21.875 12.4738C21.875 13.394 21.7491 14.2794 21.4974 15.1301C21.2457 15.9808 20.8854 16.7707 20.4167 17.4999ZM16.9271 14.0103L14.5833 11.6666V8.28114C15.3993 8.66309 16.0373 9.236 16.4974 9.99989C16.9575 10.7638 17.1875 11.5971 17.1875 12.4999C17.1875 12.7603 17.1658 13.0164 17.1224 13.2681C17.079 13.5199 17.0139 13.7673 16.9271 14.0103ZM12.5 9.58322L9.79167 6.87489L12.5 4.16656V9.58322Z"
        fill="#36343B" />
</svg>
